<svg width="491" height="592" viewBox="0 0 491 592" fill="none" xmlns="http://www.w3.org/2000/svg">
<path d="M376.298 501.139H136.275V590.169H376.298V501.139Z" fill="#222222"/>
<path d="M376.298 591.331H136.275C135.954 591.325 135.647 591.2 135.42 590.984C135.192 590.767 135.062 590.475 135.055 590.169V501.139C135.055 500.831 135.184 500.535 135.413 500.317C135.642 500.099 135.952 499.977 136.275 499.977H376.298C376.622 499.977 376.932 500.099 377.161 500.317C377.39 500.535 377.518 500.831 377.518 501.139V590.169C377.518 590.477 377.39 590.772 377.161 590.99C376.932 591.208 376.622 591.331 376.298 591.331ZM137.495 589.007H375.078V502.3H137.495V589.007Z" fill="#222222"/>
<path d="M484.878 354.49C483.78 357.069 464.87 450.049 436.078 457.414C407.286 464.779 350.459 383.206 350.459 383.206L389.499 215.926L484.878 354.49Z" fill="#7E83FF"/>
<path d="M32.1362 341.177C33.2342 343.756 54.0962 436.597 82.815 443.938C111.534 451.28 131.81 394.591 131.81 394.591L103.067 233.56L32.1362 341.177Z" fill="#7E83FF"/>
<path d="M46.9471 357.952C51.9626 361.385 58.0863 363.03 64.2467 362.598C67.3112 362.343 70.2483 361.313 72.7537 359.613C75.2592 357.914 77.2419 355.608 78.4963 352.933C79.1242 351.46 79.4154 349.876 79.3503 348.287C79.1439 345.835 78.1756 343.498 76.5687 341.572C70.0295 333.231 47.5815 321.475 37.2115 328.074C23.2791 337.019 37.8215 352.004 46.9471 357.952Z" fill="white"/>
<path d="M62.0751 363.992C56.3847 363.863 50.8669 362.107 46.2395 358.951C40.2371 355.048 30.1355 346.056 30.1843 337.204C30.241 335.149 30.852 333.141 31.9588 331.376C33.0655 329.61 34.6307 328.145 36.5039 327.121C47.5571 320.151 70.5175 331.907 77.5691 340.898C79.3163 343.028 80.3759 345.595 80.6191 348.287C80.7045 350.059 80.3797 351.828 79.6675 353.468C78.0945 356.637 75.6025 359.312 72.4855 361.176C69.3684 363.041 65.7562 364.018 62.0751 363.992ZM47.6547 357.022C52.3944 360.378 58.2302 362.024 64.1247 361.669C66.9551 361.431 69.6684 360.481 71.9876 358.918C74.3067 357.355 76.1485 355.233 77.3251 352.771C77.894 351.437 78.1602 350.004 78.1059 348.565C77.9267 346.362 77.079 344.255 75.6659 342.502C69.4439 334.556 47.6303 323.171 38.0411 329.282C36.515 330.095 35.2336 331.268 34.3194 332.687C33.4052 334.107 32.8888 335.726 32.8195 337.39C32.6487 344.058 40.4323 352.26 47.6547 356.976V357.022Z" fill="#222222"/>
<path d="M63.8319 277.076C67.6272 277.407 71.3296 278.382 74.763 279.957C78.2766 281.7 83.3275 284.465 85.1087 287.95C85.6262 288.897 85.8964 289.949 85.8964 291.016C85.8964 292.084 85.6262 293.136 85.1087 294.083C84.4904 294.975 83.6648 295.72 82.696 296.26C81.7271 296.8 80.6408 297.12 79.5211 297.197C77.2927 297.334 75.0561 297.106 72.9087 296.523C67.6139 295.338 38.1875 289.344 48.5087 279.167C52.3151 275.52 59.0739 276.542 63.8319 277.076Z" fill="white"/>
<path d="M78.2034 298.451C76.3244 298.398 74.4579 298.141 72.6402 297.684L72.0059 297.545C55.5847 293.944 46.8738 289.832 45.361 284.953C45.0754 283.742 45.1527 282.479 45.5841 281.309C46.0155 280.138 46.7837 279.106 47.801 278.331C51.7538 274.451 58.4394 275.241 63.3438 275.799H64.1002C68.0436 276.125 71.89 277.141 75.4462 278.796C79.521 280.817 84.4498 283.605 86.353 287.346C86.9666 288.464 87.2871 289.708 87.2871 290.97C87.2871 292.232 86.9666 293.476 86.353 294.594C85.6145 295.671 84.6199 296.566 83.4498 297.208C82.2797 297.85 80.9671 298.22 79.6186 298.288C79.1499 298.364 78.6776 298.419 78.2034 298.451ZM56.9266 277.727C55.6058 277.635 54.279 277.793 53.0226 278.191C51.7662 278.59 50.6052 279.222 49.6066 280.05C48.9306 280.545 48.4127 281.209 48.111 281.968C47.8093 282.727 47.7358 283.552 47.8986 284.348C48.7282 287.044 53.7058 291.133 72.689 295.291L73.3234 295.431C75.3373 295.971 77.4328 296.183 79.5211 296.058C80.4442 296.007 81.3424 295.753 82.1464 295.318C82.9503 294.883 83.6382 294.278 84.157 293.549C84.5783 292.777 84.7983 291.921 84.7983 291.051C84.7983 290.182 84.5783 289.325 84.157 288.554C82.571 285.417 77.813 282.792 74.397 281.096C71.1065 279.576 67.5496 278.646 63.905 278.354H63.1242C61.0751 278.016 59.0047 277.806 56.9266 277.727Z" fill="#222222"/>
<path d="M213.941 160.538C213.941 160.538 159.578 165.858 163.384 176.592C167.19 187.326 188.565 197.502 188.565 197.502C188.565 197.502 109.753 223.175 102.213 232.608C94.6735 242.041 122.929 515.66 122.929 515.66H364.123C364.123 515.66 394.257 219.481 388.523 215.067C382.789 210.652 303.855 190.95 303.855 190.95C303.855 190.95 318.08 169.436 312.37 164.488C306.661 159.539 213.941 160.538 213.941 160.538Z" fill="#7E83FF"/>
<path d="M249.418 479.206H249.247C249.082 479.184 248.924 479.13 248.78 479.049C248.637 478.968 248.512 478.86 248.412 478.733C248.312 478.606 248.24 478.461 248.199 478.307C248.158 478.153 248.15 477.993 248.174 477.836L285.237 245.386L211.671 200.709C211.533 200.624 211.413 200.514 211.32 200.385C211.226 200.255 211.161 200.11 211.126 199.957C211.092 199.803 211.091 199.645 211.121 199.491C211.152 199.337 211.215 199.19 211.305 199.059C211.486 198.793 211.768 198.606 212.092 198.536C212.416 198.467 212.755 198.521 213.038 198.687L287.287 243.853C287.494 243.981 287.657 244.163 287.756 244.377C287.856 244.592 287.888 244.829 287.848 245.061L250.663 478.184C250.616 478.467 250.466 478.726 250.238 478.913C250.01 479.1 249.719 479.204 249.418 479.206Z" fill="#222222"/>
<path d="M377.445 359.81C377.278 359.801 377.115 359.761 376.965 359.692C376.814 359.623 376.68 359.526 376.569 359.408C376.458 359.289 376.372 359.151 376.318 359C376.263 358.85 376.24 358.691 376.25 358.533C376.25 357.58 381.569 263.276 384.131 243.458C384.173 243.145 384.343 242.861 384.603 242.666C384.863 242.47 385.192 242.379 385.522 242.412C385.687 242.426 385.847 242.473 385.993 242.548C386.139 242.623 386.267 242.726 386.37 242.85C386.473 242.973 386.548 243.116 386.591 243.269C386.634 243.421 386.643 243.58 386.62 243.737C384.058 263.578 378.812 357.719 378.763 358.672C378.738 358.986 378.587 359.279 378.342 359.491C378.097 359.703 377.776 359.817 377.445 359.81Z" fill="#222222"/>
<path d="M330.109 58.7064C330.109 83.4731 291.167 91.5118 243.099 91.5118C195.031 91.5118 156.113 83.5428 156.113 58.7761C156.113 34.0093 195.153 1.83118 243.099 1.83118C291.045 1.83118 330.109 33.9396 330.109 58.7064Z" fill="white"/>
<path d="M243.099 92.6503C184.539 92.6503 154.868 81.2427 154.868 58.7064C154.868 32.5456 195.568 0.623028 243.099 0.623028C265.497 0.603542 287.311 7.4189 305.343 20.0693C321.618 31.686 331.329 46.0442 331.329 58.7761C331.378 81.2427 301.659 92.6503 243.099 92.6503ZM243.099 2.96959C193.372 2.96959 157.382 36.263 157.382 58.7296C157.382 84.7974 203.986 90.2805 243.099 90.2805C282.212 90.2805 328.816 84.7974 328.816 58.7296C328.865 36.263 292.875 2.96959 243.099 2.96959Z" fill="#222222"/>
<path d="M279.503 113.56C282.09 96.1817 312.224 91.3724 311.223 111.818C311.129 118.921 308.407 125.766 303.537 131.148C298.462 136.259 290.166 138.792 283.359 136.027" fill="white"/>
<path d="M289.263 138.35C287.037 138.363 284.83 137.952 282.773 137.142C282.498 137.007 282.283 136.783 282.167 136.511C282.05 136.238 282.04 135.934 282.139 135.655C282.203 135.512 282.296 135.381 282.412 135.272C282.529 135.163 282.667 135.077 282.819 135.018C282.971 134.96 283.134 134.931 283.297 134.933C283.461 134.934 283.623 134.967 283.773 135.028C287.035 136.122 290.566 136.264 293.913 135.436C297.26 134.608 300.271 132.848 302.561 130.381C307.22 125.198 309.812 118.617 309.881 111.795C310.418 101.711 303.22 99.9687 300.121 99.6899C292.069 98.9465 282.163 104.546 280.797 113.63C280.714 113.904 280.53 114.14 280.278 114.296C280.027 114.451 279.725 114.514 279.429 114.475C279.132 114.435 278.86 114.295 278.663 114.08C278.466 113.865 278.358 113.59 278.357 113.305C279.918 102.757 291.191 96.3211 300.317 97.1808C306.49 97.7384 312.907 101.827 312.37 111.795C312.265 119.181 309.432 126.296 304.367 131.891C302.435 133.88 300.102 135.476 297.506 136.586C294.911 137.696 292.108 138.296 289.263 138.35Z" fill="#222222"/>
<path d="M208.011 113.049C204.766 95.7635 174.461 92.1391 176.291 112.445C176.663 119.532 179.643 126.269 184.71 131.473C189.98 136.399 198.374 138.629 205.059 135.632" fill="white"/>
<path d="M198.544 138.188C193.052 138.118 187.802 136.018 183.904 132.333C178.622 126.922 175.504 119.916 175.096 112.538C174.169 102.664 180.44 98.296 186.588 97.506C195.714 96.3444 207.28 102.362 209.256 112.84C209.301 112.999 209.312 113.164 209.286 113.327C209.26 113.49 209.2 113.645 209.107 113.784C209.015 113.923 208.894 114.042 208.75 114.134C208.607 114.226 208.446 114.288 208.276 114.318C208.106 114.347 207.932 114.342 207.764 114.303C207.596 114.265 207.438 114.193 207.301 114.094C207.164 113.994 207.05 113.868 206.966 113.725C206.883 113.581 206.832 113.422 206.816 113.258C205.084 104.104 194.958 98.8768 186.93 99.8991C183.831 100.294 176.706 102.222 177.634 112.329C177.98 119.142 180.83 125.622 185.686 130.637C188.073 133.011 191.15 134.652 194.523 135.352C197.896 136.051 201.412 135.777 204.62 134.563C204.769 134.496 204.93 134.458 205.095 134.45C205.26 134.442 205.424 134.465 205.58 134.518C205.735 134.571 205.877 134.653 206 134.758C206.122 134.863 206.221 134.991 206.291 135.132C206.362 135.274 206.402 135.428 206.41 135.585C206.419 135.742 206.394 135.898 206.339 136.046C206.283 136.194 206.198 136.33 206.087 136.446C205.976 136.562 205.843 136.657 205.694 136.724C203.456 137.715 201.012 138.215 198.544 138.188Z" fill="#222222"/>
<path d="M212.355 199.617C212.355 199.617 238.975 210.002 245.734 210.002C263.156 210.002 277.918 198.385 277.918 198.385L276.673 186.281L273.77 158.168L271.061 131.938L212.355 129.475L215.21 154.474L214.795 161.444L212.355 199.617Z" fill="white"/>
<path d="M245.734 211.21C238.804 211.21 212.989 201.173 211.891 200.732C211.644 200.642 211.433 200.477 211.293 200.264C211.152 200.05 211.088 199.798 211.11 199.547L213.941 154.404L211.11 129.591C211.081 129.431 211.09 129.266 211.137 129.109C211.183 128.952 211.266 128.808 211.379 128.685C211.5 128.56 211.647 128.461 211.811 128.393C211.975 128.325 212.152 128.29 212.33 128.29L271.037 130.776C271.34 130.781 271.63 130.893 271.851 131.091C272.072 131.288 272.208 131.557 272.232 131.845L279.186 198.385C279.199 198.582 279.164 198.778 279.083 198.96C279.003 199.141 278.879 199.302 278.723 199.431C278.113 199.872 263.4 211.21 245.734 211.21ZM213.672 198.85C223.042 202.474 240.732 208.817 245.734 208.817C260.716 208.817 273.867 199.895 276.6 197.92L269.939 133.099L213.819 130.776L216.454 154.242L216.064 161.444L213.672 198.85Z" fill="#222222"/>
<path d="M214.795 161.467C219.495 167.692 225.74 172.712 232.973 176.081C244.807 182.052 262.497 188.674 276.673 186.35L273.77 158.238C263.377 159.656 252.845 159.906 242.391 158.981C233.192 158.377 223.701 157.68 215.21 154.474L214.795 161.467Z" fill="#222222"/>
<path d="M270.5 188C256.348 188 240.976 181.425 232.411 177.103C224.987 173.669 218.592 168.507 213.819 162.095C213.681 161.887 213.612 161.644 213.623 161.398L214.038 154.428C214.05 154.245 214.107 154.068 214.205 153.911C214.302 153.753 214.438 153.62 214.599 153.522C214.769 153.436 214.957 153.391 215.148 153.391C215.34 153.391 215.528 153.436 215.697 153.522C224.262 156.751 233.973 157.402 242.537 157.936C252.909 158.877 263.362 158.627 273.672 157.192C274.001 157.151 274.334 157.235 274.599 157.425C274.733 157.521 274.844 157.643 274.924 157.783C275.004 157.924 275.051 158.079 275.063 158.238L277.942 186.374C277.977 186.662 277.892 186.953 277.705 187.183C277.518 187.413 277.244 187.564 276.941 187.605C274.811 187.916 272.655 188.048 270.5 188ZM216.039 161.212C220.584 167.162 226.602 171.95 233.558 175.152C242.928 179.799 260.618 187.373 275.355 185.467L272.696 159.655C262.617 160.932 252.418 161.127 242.293 160.236C233.457 160.005 224.696 158.614 216.259 156.101L216.039 161.212Z" fill="#222222"/>
<path d="M199.179 65.9551L200.374 126.362C200.586 136.897 205.182 146.922 213.152 154.232C221.122 161.542 231.815 165.54 242.879 165.347H247.759C253.239 165.251 258.645 164.127 263.668 162.04C268.691 159.954 273.234 156.946 277.036 153.187C280.838 149.429 283.825 144.994 285.827 140.136C287.829 135.278 288.806 130.092 288.702 124.875L287.531 65.9551H199.179Z" fill="white"/>
<path d="M242.098 166.625C230.834 166.596 220.03 162.364 212.006 154.837C203.982 147.309 199.377 137.086 199.179 126.362L197.934 65.9552C197.931 65.7957 197.962 65.6372 198.024 65.4892C198.087 65.3411 198.18 65.2067 198.299 65.0939C198.417 64.9811 198.558 64.8922 198.714 64.8326C198.869 64.773 199.036 64.7439 199.203 64.7471H287.531C287.695 64.744 287.857 64.7716 288.009 64.8283C288.161 64.885 288.3 64.9697 288.418 65.0776C288.536 65.1855 288.63 65.3144 288.696 65.457C288.761 65.5996 288.797 65.7531 288.8 65.9087L289.947 124.875C290.063 130.257 289.065 135.609 287.009 140.624C284.953 145.639 281.879 150.219 277.964 154.102C274.048 157.986 269.368 161.097 264.189 163.257C259.011 165.418 253.436 166.586 247.784 166.695H242.904L242.098 166.625ZM200.472 67.0936L201.619 126.362C201.818 136.587 206.273 146.318 214.006 153.416C221.739 160.513 232.116 164.396 242.855 164.209H247.735C258.463 164.001 268.666 159.751 276.108 152.391C283.55 145.03 287.623 135.16 287.434 124.945L286.311 67.1633L200.472 67.0936Z" fill="#222222"/>
<path d="M221.607 112.275C223.196 112.247 224.428 109.281 224.356 105.65C224.285 102.02 222.939 99.0994 221.349 99.1276C219.759 99.1559 218.528 102.122 218.599 105.753C218.67 109.383 220.017 112.304 221.607 112.275Z" fill="#222222"/>
<path d="M264.543 112.279C266.133 112.251 267.364 109.285 267.293 105.654C267.222 102.023 265.875 99.1029 264.285 99.1312C262.695 99.1595 261.464 102.126 261.535 105.756C261.607 109.387 262.953 112.307 264.543 112.279Z" fill="#222222"/>
<path d="M283.603 65.9551C284.237 75.6434 285.604 101.061 283.31 117.068C280.089 139.303 274.819 141.58 274.819 141.58C274.819 141.58 271.134 131.938 244.953 131.868C214.6 131.868 208.085 141.696 208.085 141.696C200.57 126.222 202.131 79.7325 202.79 65.8854H192.103C191.664 81.6144 188.98 133.913 194.274 150.571C200.399 169.855 211.354 180.983 249.784 181.216C277.21 181.378 285.823 168.344 290.728 143.252C295.48 117.745 296.572 91.742 293.973 65.9551H283.603Z" fill="#B3B3B3"/>
<path d="M250.223 182.377H249.711C210.671 182.122 199.301 170.761 193.03 150.896C188.345 136.12 189.833 93.6493 190.59 73.2272C190.59 70.2998 190.785 67.8138 190.834 65.8622C190.846 65.5622 190.981 65.2786 191.208 65.0707C191.435 64.8628 191.739 64.7468 192.054 64.747H202.741C202.905 64.7433 203.068 64.7725 203.219 64.8325C203.37 64.8925 203.507 64.9821 203.619 65.0955C203.877 65.3172 204.035 65.6253 204.059 65.9551C203.424 79.2911 201.96 122.877 208.524 139.558C211.72 136.654 221.163 130.706 244.636 130.706H245.002C265.937 130.706 273.013 136.91 275.16 139.767C276.673 138.002 280.04 132.472 282.236 116.743C284.432 101.014 283.188 75.9919 282.505 65.9551C282.494 65.797 282.519 65.6385 282.578 65.4903C282.637 65.342 282.728 65.2075 282.846 65.0955C282.959 64.9821 283.095 64.8925 283.247 64.8325C283.398 64.7725 283.561 64.7433 283.725 64.747H294.095C294.39 64.7506 294.674 64.8562 294.894 65.0442C295.114 65.2323 295.255 65.4899 295.29 65.7693C297.893 91.7003 296.752 117.849 291.899 143.485C287.019 168.182 278.649 182.377 250.223 182.377ZM193.201 67.0471C193.201 68.8129 193.079 70.9271 192.981 73.3201C192.273 93.6028 190.785 135.818 195.421 150.222C203.327 175.082 220.626 179.868 249.809 180.054H250.321C277.161 180.054 284.847 167.02 289.532 143.043C294.26 117.973 295.409 92.4101 292.948 67.0471H284.969C285.652 77.8506 286.799 101.734 284.603 117.045C281.358 139.465 275.941 142.37 275.331 142.602C275.177 142.665 275.011 142.697 274.843 142.697C274.675 142.697 274.509 142.665 274.355 142.602C274.199 142.543 274.06 142.453 273.946 142.336C273.832 142.219 273.746 142.08 273.696 141.928C273.696 141.928 269.719 133.053 244.953 132.983H244.587C215.795 132.983 209.183 142.277 209.109 142.277C208.994 142.45 208.83 142.589 208.636 142.679C208.442 142.77 208.226 142.807 208.011 142.788C207.795 142.776 207.587 142.709 207.407 142.595C207.226 142.48 207.082 142.323 206.987 142.137C199.667 126.85 200.838 82.2417 201.521 67.0006L193.201 67.0471Z" fill="#222222"/>
<path d="M245.148 108.286C245.148 108.286 254.738 137.003 248.711 137.816C242.684 138.629 234.949 129.359 234.949 129.359" fill="white"/>
<path d="M247.979 139.07C241.513 139.07 234.315 130.474 233.998 130.102C233.894 129.981 233.817 129.841 233.771 129.69C233.725 129.54 233.711 129.383 233.729 129.227C233.747 129.072 233.798 128.921 233.877 128.784C233.957 128.647 234.064 128.527 234.193 128.43C234.455 128.23 234.79 128.137 235.124 128.172C235.458 128.207 235.763 128.366 235.974 128.615C237.975 130.939 244.148 137.235 248.54 136.631C248.54 136.631 248.735 136.631 248.906 136.352C251.004 133.192 246.978 117.766 244.026 108.635C243.925 108.333 243.954 108.005 244.104 107.723C244.255 107.44 244.516 107.226 244.831 107.125C245.152 107.036 245.495 107.069 245.791 107.216C246.086 107.363 246.311 107.614 246.417 107.915C247.784 112.004 254.396 132.588 251.078 137.63C250.856 137.997 250.55 138.311 250.182 138.548C249.814 138.786 249.395 138.941 248.955 139.001L247.979 139.07Z" fill="#222222"/>
<path d="M244.734 158.889C236.241 158.772 227.892 156.792 220.334 153.103C220.078 152.93 219.899 152.673 219.831 152.381C219.763 152.089 219.811 151.784 219.966 151.524C220.12 151.264 220.371 151.068 220.669 150.973C220.966 150.879 221.29 150.893 221.578 151.012C221.822 151.012 244.734 163.28 264.546 151.012C264.684 150.927 264.838 150.868 265 150.84C265.161 150.811 265.328 150.813 265.488 150.845C265.649 150.877 265.802 150.94 265.937 151.028C266.073 151.117 266.189 151.23 266.279 151.361C266.368 151.492 266.43 151.639 266.46 151.793C266.491 151.947 266.489 152.105 266.455 152.258C266.421 152.411 266.355 152.556 266.262 152.685C266.169 152.815 266.051 152.925 265.913 153.01C259.606 156.894 252.244 158.937 244.734 158.889Z" fill="#222222"/>
<path d="M181.586 45.7189C181.586 45.7189 198.813 36.7276 245.734 36.7276C292.655 36.7276 304.709 45.7189 304.709 45.7189L295.339 77.5718H190.956L181.586 45.7189Z" fill="#7E83FF"/>
<path d="M295.339 78.7102H190.956C190.692 78.7102 190.435 78.6287 190.224 78.4779C190.013 78.3271 189.859 78.1151 189.785 77.8738L180.415 46.0209C180.343 45.7696 180.361 45.5024 180.467 45.2622C180.573 45.022 180.761 44.8228 181.001 44.6966C181.708 44.3249 199.032 35.5892 245.734 35.5892C292.436 35.5892 304.953 44.4178 305.441 44.8825C305.63 45.0265 305.771 45.2189 305.849 45.4371C305.927 45.6553 305.938 45.8901 305.88 46.1139L296.51 77.9668C296.42 78.1907 296.259 78.3824 296.049 78.5156C295.839 78.6487 295.591 78.7167 295.339 78.7102ZM191.883 76.3869H294.363L303.245 46.1836C300.17 44.4643 285.652 37.8428 245.685 37.8428C205.718 37.8428 187.003 44.5805 182.977 46.2765L191.883 76.3869Z" fill="#222222"/>
<path d="M190.956 77.5718C190.956 77.5718 216.722 95.9726 245.734 94.6251C263.639 93.5637 280.851 87.6464 295.339 77.5718H190.956Z" fill="#222222"/>
<path d="M242.708 95.8333C214.844 95.8333 190.468 78.6638 190.224 78.478C190.02 78.3301 189.87 78.1248 189.796 77.8912C189.721 77.6577 189.726 77.4078 189.809 77.1769C189.893 76.9499 190.048 76.7527 190.253 76.6116C190.458 76.4704 190.703 76.3921 190.956 76.387H295.339C295.592 76.3921 295.837 76.4704 296.042 76.6116C296.247 76.7527 296.402 76.9499 296.486 77.1769C296.566 77.4023 296.572 77.6458 296.502 77.8743C296.432 78.1029 296.29 78.3055 296.096 78.4547C281.383 88.6418 263.936 94.644 245.783 95.7636C244.758 95.81 243.733 95.8333 242.708 95.8333ZM194.909 78.7103C202.668 83.357 223.286 94.4625 245.685 93.4402C262.055 92.4201 277.86 87.3422 291.533 78.7103H194.909Z" fill="#222222"/>
<path d="M256.031 57.1497C253.688 56.0144 251.793 54.1889 250.627 51.9449C249.462 49.701 249.09 47.1587 249.565 44.6967H234.925C235.4 47.1587 235.027 49.701 233.862 51.9449C232.697 54.1889 230.802 56.0144 228.459 57.1497C228.459 57.1497 230.216 72.1585 242.245 72.1585C254.274 72.1585 256.031 57.1497 256.031 57.1497Z" fill="#F7F7F7"/>
<path d="M243.953 32.9638C243.629 32.9638 243.319 32.8414 243.09 32.6236C242.861 32.4057 242.733 32.1103 242.733 31.8022V8.03447C242.733 7.72638 242.861 7.4309 243.09 7.21305C243.319 6.99519 243.629 6.8728 243.953 6.8728C244.276 6.8728 244.587 6.99519 244.815 7.21305C245.044 7.4309 245.173 7.72638 245.173 8.03447V31.8022C245.173 32.1103 245.044 32.4057 244.815 32.6236C244.587 32.8414 244.276 32.9638 243.953 32.9638Z" fill="#B3B3B3"/>
<path d="M304.709 73.3201C304.441 73.3187 304.182 73.2338 303.971 73.0785C303.759 72.9232 303.607 72.7061 303.537 72.4605C303.493 72.3156 303.479 72.1637 303.497 72.0136C303.514 71.8636 303.563 71.7184 303.641 71.5865C303.718 71.4546 303.822 71.3386 303.946 71.2454C304.071 71.1521 304.214 71.0834 304.367 71.0433C310.523 69.1228 316.168 65.9519 320.91 61.7499C321.024 61.641 321.159 61.5546 321.307 61.4957C321.456 61.4367 321.615 61.4063 321.776 61.4063C321.937 61.4063 322.097 61.4367 322.246 61.4957C322.394 61.5546 322.529 61.641 322.643 61.7499C322.757 61.8579 322.848 61.9864 322.91 62.128C322.972 62.2695 323.003 62.4214 323.003 62.5747C323.003 62.7281 322.972 62.8799 322.91 63.0215C322.848 63.163 322.757 63.2915 322.643 63.3995C317.639 67.8975 311.646 71.2784 305.099 73.2969L304.709 73.3201Z" fill="#B3B3B3"/>
<path d="M181.294 73.3201H180.952C174.408 71.2953 168.417 67.9152 163.408 63.4227C163.172 63.2102 163.034 62.9169 163.025 62.6076C163.016 62.2982 163.136 61.9981 163.36 61.7732C163.583 61.5483 163.891 61.417 164.216 61.4083C164.541 61.3996 164.856 61.5141 165.092 61.7267C169.832 65.9205 175.466 69.0905 181.611 71.02C181.934 71.0601 182.228 71.2209 182.427 71.4671C182.626 71.7132 182.714 72.0246 182.672 72.3327C182.63 72.6408 182.461 72.9204 182.203 73.1099C181.944 73.2994 181.617 73.3834 181.294 73.3434V73.3201Z" fill="#B3B3B3"/>
<path d="M212.355 199.616L248.418 221.618L277.918 198.385C277.918 198.385 243.221 214.95 212.355 199.616Z" fill="#222222"/>
<path d="M248.418 222.734C248.185 222.726 247.958 222.662 247.759 222.548L211.696 200.708C211.452 200.539 211.282 200.29 211.22 200.009C211.157 199.727 211.207 199.434 211.359 199.185C211.51 198.936 211.754 198.75 212.041 198.663C212.329 198.575 212.641 198.592 212.916 198.71C242.855 213.58 277.039 197.711 277.381 197.549C277.646 197.417 277.953 197.384 278.242 197.457C278.531 197.53 278.781 197.704 278.942 197.944C279.102 198.185 279.165 198.472 279.12 198.754C279.075 199.035 278.926 199.292 278.698 199.477L249.199 222.571C248.966 222.709 248.69 222.766 248.418 222.734ZM223.579 205.007L248.442 220.132L271.232 202.312C261.13 205.587 242.415 210.002 223.579 205.007Z" fill="#222222"/>
<path d="M131.81 468.031C131.49 468.032 131.181 467.918 130.946 467.711C130.711 467.504 130.566 467.22 130.542 466.916C123.783 384.229 122.075 261.742 122.075 260.511C122.071 260.356 122.1 260.201 122.16 260.056C122.22 259.911 122.309 259.779 122.422 259.666C122.535 259.554 122.671 259.464 122.82 259.402C122.97 259.34 123.131 259.306 123.295 259.303C123.625 259.309 123.941 259.435 124.177 259.655C124.413 259.875 124.551 260.173 124.564 260.488C124.564 261.719 126.272 384.112 133.03 466.73C133.044 466.886 133.025 467.043 132.974 467.191C132.924 467.34 132.843 467.477 132.736 467.596C132.629 467.715 132.499 467.813 132.353 467.883C132.207 467.954 132.047 467.996 131.884 468.008L131.81 468.031Z" fill="#222222"/>
<path d="M204.913 284.348C204.913 297.963 208.451 320.314 214.966 345.057C219.087 361.098 224.412 376.836 230.899 392.151L249.492 387.714C247.604 371.257 244.473 354.951 240.122 338.924C233.607 314.157 225.653 292.875 218.943 280.84L204.913 284.348Z" fill="white"/>
<path d="M230.899 393.359C230.652 393.358 230.411 393.286 230.206 393.154C230.002 393.021 229.844 392.834 229.752 392.616C223.253 377.218 217.928 361.394 213.819 345.266C207.523 321.313 203.741 298.498 203.717 284.256C203.715 283.988 203.807 283.728 203.98 283.517C204.153 283.306 204.396 283.157 204.669 283.094L218.625 279.748C218.898 279.686 219.185 279.711 219.441 279.82C219.697 279.93 219.908 280.117 220.041 280.352C227.068 292.922 235.047 314.738 241.342 338.691C245.696 354.768 248.843 371.119 250.76 387.621C250.782 387.906 250.699 388.189 250.525 388.422C250.352 388.655 250.098 388.824 249.809 388.898L231.216 393.313L230.899 393.359ZM206.255 285.185C206.425 299.311 210.134 321.429 216.259 344.662C220.262 360.341 225.407 375.735 231.655 390.734L247.979 386.808C246.04 370.78 242.95 354.897 238.731 339.272C232.607 316.039 224.945 294.827 218.113 282.304L206.255 285.185Z" fill="#222222"/>
<path d="M210.281 248.151C208.426 240.391 207.841 174.246 184.832 179.729C161.822 185.212 194.055 243.83 196.275 251.497L210.281 248.151Z" fill="white"/>
<path d="M196.275 252.705C195.997 252.708 195.727 252.623 195.505 252.463C195.284 252.303 195.126 252.078 195.055 251.822C194.665 250.498 193.225 247.315 191.42 243.318C184.1 227.055 170.484 197.014 177.121 184.19C177.823 182.792 178.845 181.561 180.112 180.589C181.379 179.616 182.858 178.925 184.441 178.567C186.02 178.15 187.679 178.082 189.29 178.367C190.901 178.653 192.422 179.286 193.738 180.217C205.938 188.534 208.866 221.2 210.403 238.765C210.793 243.109 211.11 246.548 211.428 247.895C211.501 248.2 211.444 248.52 211.271 248.786C211.097 249.051 210.82 249.241 210.5 249.313L196.495 252.658L196.275 252.705ZM187.467 180.681C186.644 180.678 185.825 180.771 185.027 180.96C183.783 181.22 182.619 181.75 181.625 182.507C180.63 183.265 179.832 184.23 179.293 185.328C173.144 197.154 186.979 227.729 193.64 242.436C195.177 245.804 196.348 248.453 197.007 250.126L208.939 247.175C208.67 245.409 208.426 242.529 208.109 238.881C206.694 222.92 203.742 189.742 192.469 182.075C191.016 181.077 189.258 180.563 187.467 180.612V180.681Z" fill="#222222"/>
<path d="M210.76 241.965L191.351 246.594C189.403 247.058 188.22 248.938 188.707 250.793L189.964 255.571C190.452 257.425 192.426 258.552 194.374 258.088L213.783 253.459C215.73 252.995 216.914 251.115 216.426 249.26L215.169 244.482C214.682 242.628 212.707 241.501 210.76 241.965Z" fill="white"/>
<path d="M193.518 259.373C192.403 259.404 191.311 259.07 190.423 258.427C189.535 257.785 188.905 256.872 188.638 255.841L187.394 251.055C187.233 250.462 187.197 249.844 187.287 249.237C187.378 248.63 187.595 248.046 187.923 247.519C188.252 246.993 188.687 246.533 189.204 246.167C189.72 245.801 190.307 245.535 190.932 245.386L210.452 240.74C211.075 240.59 211.723 240.559 212.359 240.649C212.994 240.739 213.605 240.947 214.156 241.263C214.707 241.578 215.187 241.993 215.569 242.486C215.951 242.978 216.227 243.537 216.381 244.132L217.625 248.918C217.782 249.51 217.816 250.125 217.723 250.729C217.63 251.333 217.413 251.914 217.085 252.439C216.756 252.963 216.322 253.42 215.808 253.785C215.294 254.15 214.709 254.414 214.087 254.563L194.567 259.21C194.225 259.3 193.873 259.355 193.518 259.373ZM211.647 243.109H211.086L191.566 247.756C191.266 247.825 190.984 247.952 190.737 248.127C190.489 248.303 190.282 248.524 190.126 248.778C189.958 249.027 189.847 249.306 189.801 249.599C189.755 249.891 189.774 250.19 189.858 250.474L191.102 255.284C191.274 255.853 191.668 256.339 192.203 256.641C192.738 256.943 193.374 257.04 193.982 256.91L213.502 252.263C213.801 252.194 214.083 252.068 214.331 251.892C214.578 251.716 214.786 251.495 214.941 251.241C215.11 250.988 215.221 250.705 215.267 250.409C215.313 250.112 215.294 249.81 215.21 249.522L213.965 244.736C213.827 244.248 213.527 243.817 213.108 243.507C212.69 243.196 212.177 243.024 211.647 243.016V243.109Z" fill="#222222"/>
<path d="M272.769 542.239C266.035 530.204 258.129 508.922 251.565 484.155C247.215 468.127 244.084 451.822 242.196 435.365L260.789 430.928C267.252 446.276 272.552 462.045 276.649 478.115C283.163 502.881 286.701 525.208 286.701 538.846L272.769 542.239Z" fill="white"/>
<path d="M272.769 543.354C272.538 543.351 272.312 543.289 272.115 543.174C271.917 543.06 271.756 542.897 271.647 542.703C264.619 530.134 256.641 508.341 250.345 484.364C245.984 468.267 242.845 451.892 240.951 435.365C240.918 435.082 240.994 434.796 241.164 434.561C241.335 434.327 241.588 434.158 241.879 434.087L260.471 429.65C260.763 429.583 261.069 429.616 261.337 429.743C261.605 429.871 261.817 430.085 261.935 430.347C268.438 445.752 273.763 461.584 277.869 477.72C284.188 501.673 287.946 524.488 287.97 538.73C287.968 538.997 287.874 539.255 287.702 539.465C287.53 539.675 287.29 539.825 287.019 539.892L273.062 543.214L272.769 543.354ZM243.489 436.248C245.45 452.281 248.581 468.164 252.859 483.783C258.983 507.017 266.645 528.229 273.477 540.752L285.53 537.871C285.335 523.768 281.626 501.65 275.502 478.393C271.498 462.715 266.354 447.32 260.105 432.322L243.489 436.248Z" fill="#222222"/>
<path d="M303.464 590.169C299.585 581.154 296.144 573.906 295.364 571.582L281.358 574.928C281.822 576.926 282.212 582.734 282.92 590.192L303.464 590.169Z" fill="white"/>
<path d="M303.464 591.377H282.919C282.607 591.373 282.308 591.259 282.078 591.057C281.849 590.856 281.705 590.581 281.675 590.285C281.48 588.148 281.309 586.173 281.138 584.361C280.748 579.969 280.431 576.508 280.113 575.067C280.047 574.763 280.106 574.446 280.279 574.182C280.451 573.918 280.724 573.727 281.041 573.65L295.046 570.304C295.369 570.233 295.709 570.282 295.995 570.442C296.281 570.602 296.492 570.86 296.583 571.164C296.949 572.488 298.389 575.671 300.219 579.691C301.512 582.572 303.049 585.94 304.635 589.611C304.706 589.798 304.731 589.997 304.71 590.194C304.689 590.391 304.622 590.581 304.513 590.75C304.406 590.928 304.254 591.079 304.071 591.188C303.888 591.298 303.68 591.362 303.464 591.377ZM284.091 589.054H301.659C300.341 586.033 299.072 583.245 297.974 580.829C296.437 577.437 295.241 574.788 294.607 573.092L282.871 575.88C283.139 577.669 283.383 580.527 283.725 584.268C283.773 585.662 283.92 587.265 284.091 588.961V589.054Z" fill="#222222"/>
<path d="M295.823 565.37L276.415 569.998C274.467 570.463 273.284 572.343 273.771 574.198L275.028 578.975C275.516 580.83 277.49 581.957 279.438 581.492L298.847 576.864C300.794 576.4 301.978 574.52 301.49 572.665L300.233 567.887C299.746 566.033 297.771 564.906 295.823 565.37Z" fill="white"/>
<path d="M278.601 582.757C277.489 582.79 276.4 582.459 275.512 581.821C274.625 581.183 273.993 580.276 273.721 579.249L272.476 574.44C272.319 573.848 272.286 573.232 272.378 572.628C272.471 572.024 272.688 571.443 273.017 570.919C273.345 570.395 273.779 569.937 274.293 569.572C274.808 569.208 275.393 568.943 276.014 568.794L295.534 564.147C296.158 563.998 296.806 563.967 297.441 564.057C298.077 564.147 298.688 564.355 299.239 564.671C299.79 564.986 300.27 565.401 300.652 565.894C301.034 566.386 301.309 566.945 301.464 567.54L302.732 572.326C302.889 572.919 302.922 573.536 302.827 574.142C302.733 574.747 302.514 575.329 302.183 575.853C301.852 576.378 301.415 576.835 300.898 577.198C300.381 577.562 299.794 577.825 299.17 577.971L279.65 582.618C279.307 582.701 278.955 582.747 278.601 582.757ZM296.754 566.494H296.169L276.649 571.141C276.046 571.301 275.53 571.675 275.209 572.186C275.041 572.435 274.93 572.714 274.884 573.007C274.838 573.299 274.857 573.598 274.941 573.882L276.185 578.692C276.357 579.261 276.75 579.747 277.286 580.049C277.821 580.351 278.457 580.448 279.064 580.318L298.584 575.671C299.192 575.522 299.717 575.156 300.048 574.649C300.368 574.131 300.464 573.514 300.317 572.93L299.048 568.144C298.913 567.664 298.619 567.238 298.211 566.928C297.802 566.619 297.3 566.442 296.779 566.424L296.754 566.494Z" fill="#222222"/>
<path d="M311.419 294.501C301.317 304.143 287.238 322.381 273.452 344.198C264.413 358.349 256.455 373.102 249.638 388.341L266.059 397.634C276.939 384.741 286.822 371.114 295.632 356.86C309.418 334.974 319.593 314.575 323.765 301.541L311.419 294.501Z" fill="white"/>
<path d="M265.961 398.842C265.74 398.835 265.523 398.78 265.327 398.68L248.881 389.386C248.621 389.24 248.425 389.009 248.331 388.735C248.237 388.461 248.25 388.164 248.369 387.899C255.213 372.656 263.204 357.903 272.281 343.756C285.604 322.567 299.878 303.911 310.443 293.828C310.639 293.636 310.898 293.513 311.177 293.479C311.456 293.445 311.739 293.503 311.98 293.642L324.326 300.612C324.564 300.75 324.746 300.96 324.843 301.209C324.941 301.457 324.948 301.73 324.863 301.983C320.52 315.597 309.955 336.391 296.608 357.58C287.765 371.88 277.849 385.554 266.937 398.494C266.809 398.613 266.656 398.706 266.488 398.766C266.32 398.826 266.141 398.852 265.961 398.842ZM251.102 387.76L265.742 396.078C276.258 383.484 285.854 370.218 294.461 356.372C307.393 335.787 317.714 315.667 322.179 302.192L311.541 295.965C301.171 306.072 287.385 324.217 274.428 344.755C265.621 358.561 257.827 372.93 251.102 387.76Z" fill="#222222"/>
<path d="M341.919 272.592C346.384 265.855 395.062 218.668 374.737 207.074C354.411 195.481 333.671 258.606 329.548 265.529L341.919 272.592Z" fill="white"/>
<path d="M341.919 273.801C341.693 273.796 341.474 273.731 341.284 273.615L328.889 266.645C328.748 266.566 328.624 266.461 328.526 266.336C328.427 266.211 328.355 266.07 328.315 265.918C328.274 265.767 328.265 265.61 328.288 265.456C328.311 265.301 328.366 265.153 328.45 265.018C329.157 263.833 330.499 260.627 332.183 256.561C339.039 240.298 351.703 209.723 366.001 205.146C367.544 204.675 369.174 204.524 370.783 204.702C372.392 204.881 373.942 205.386 375.329 206.183C376.716 206.98 377.908 208.05 378.824 209.322C379.74 210.594 380.36 212.038 380.641 213.557C383.081 227.682 360.902 252.728 348.921 266.18C345.969 269.526 343.627 272.174 342.87 273.313C342.759 273.456 342.616 273.574 342.452 273.658C342.287 273.742 342.105 273.791 341.919 273.801ZM331.183 265.065L341.577 270.989C342.699 269.549 344.627 267.365 347.14 264.554C357.974 252.333 380.544 226.869 378.275 213.859C378.087 212.659 377.614 211.515 376.891 210.517C376.167 209.518 375.213 208.69 374.102 208.097C373.028 207.438 371.807 207.025 370.537 206.892C369.267 206.759 367.981 206.909 366.782 207.33C353.655 211.558 340.723 242.482 334.501 257.351C333.11 260.79 331.988 263.439 331.183 265.065Z" fill="#222222"/>
<path d="M346.881 268.557L329.72 258.762C327.998 257.779 325.765 258.312 324.733 259.951L322.073 264.176C321.041 265.816 321.6 267.942 323.322 268.925L340.483 278.72C342.205 279.703 344.438 279.171 345.471 277.531L348.13 273.306C349.162 271.666 348.603 269.54 346.881 268.557Z" fill="white"/>
<path d="M342.358 280.376C341.499 280.367 340.657 280.143 339.918 279.725L322.838 269.921C321.729 269.286 320.931 268.258 320.617 267.063C320.458 266.47 320.424 265.852 320.516 265.246C320.608 264.64 320.825 264.057 321.154 263.531L323.838 259.303C324.167 258.777 324.602 258.318 325.118 257.953C325.633 257.587 326.22 257.323 326.843 257.174C327.467 257.025 328.115 256.994 328.751 257.085C329.387 257.175 329.998 257.384 330.548 257.7L347.628 267.504C348.181 267.818 348.662 268.232 349.046 268.723C349.43 269.214 349.708 269.772 349.864 270.366C350.021 270.959 350.053 271.577 349.958 272.182C349.863 272.787 349.643 273.369 349.312 273.893L346.652 278.122C346.209 278.825 345.578 279.404 344.824 279.8C344.07 280.195 343.219 280.394 342.358 280.376ZM327.889 259.466C327.478 259.469 327.075 259.57 326.717 259.761C326.359 259.952 326.057 260.226 325.839 260.558L323.179 264.786C322.86 265.304 322.764 265.921 322.911 266.505C323.067 267.084 323.452 267.583 323.985 267.899L341.065 277.681C341.606 277.97 342.244 278.052 342.847 277.91C343.45 277.767 343.973 277.411 344.31 276.914L346.969 272.685C347.281 272.167 347.371 271.555 347.221 270.975C347.071 270.396 346.693 269.893 346.164 269.572L329.084 259.791C328.728 259.57 328.314 259.45 327.889 259.442V259.466Z" fill="#222222"/>
<path d="M167.8 522.537C171.973 509.503 182.147 489.104 195.933 467.218C204.744 452.97 214.619 439.344 225.482 426.444L241.928 435.737C235.111 450.976 227.152 465.728 218.113 479.88C204.327 501.766 190.224 519.935 180.122 529.576L167.8 522.537Z" fill="white"/>
<path d="M180.122 530.784C179.9 530.778 179.683 530.722 179.488 530.622L167.141 523.652C166.899 523.517 166.712 523.308 166.61 523.059C166.509 522.811 166.498 522.536 166.58 522.281C170.948 508.666 181.513 487.896 194.835 466.707C203.695 452.404 213.619 438.723 224.53 425.77C224.721 425.55 224.989 425.402 225.285 425.355C225.581 425.308 225.885 425.365 226.141 425.514L242.586 434.808C242.845 434.95 243.04 435.177 243.135 435.447C243.229 435.716 243.216 436.01 243.099 436.271C236.255 451.515 228.264 466.268 219.187 480.415C205.84 501.603 191.59 520.283 181.025 530.366C180.913 530.492 180.775 530.594 180.62 530.666C180.464 530.738 180.295 530.778 180.122 530.784ZM169.289 522.002L179.927 528.066C190.273 517.983 204.083 499.838 217.015 479.276C225.832 465.496 233.634 451.149 240.366 436.341L225.726 428.023C215.191 440.661 205.594 453.982 197.007 467.892C184.051 488.407 173.754 508.55 169.289 522.002Z" fill="#222222"/>
<path d="M147.768 590.169C154.819 576.229 159.968 561.685 161.92 558.572L149.549 551.602C146.914 555.598 128.809 573.743 118.659 590.285L147.768 590.169Z" fill="white"/>
<path d="M147.768 591.377H118.659C118.436 591.379 118.216 591.325 118.023 591.218C117.83 591.112 117.67 590.958 117.561 590.773C117.452 590.589 117.395 590.381 117.395 590.169C117.395 589.957 117.452 589.749 117.561 589.565C124.935 578.421 133.241 567.862 142.4 557.991C145.377 554.645 147.695 552.02 148.476 550.858C148.652 550.595 148.928 550.407 149.246 550.333C149.565 550.26 149.9 550.306 150.184 550.463L162.579 557.433C162.859 557.597 163.062 557.858 163.144 558.162C163.226 558.465 163.181 558.787 163.018 559.059C162.31 560.244 160.968 563.451 159.26 567.516C156.674 573.743 153.112 582.246 148.89 590.587C148.802 590.807 148.65 590.999 148.451 591.139C148.252 591.279 148.015 591.361 147.768 591.377ZM120.928 589.054H146.963C150.989 581.015 154.405 572.79 156.918 566.819C158.358 563.404 159.358 560.732 160.261 559.106L149.891 553.181C148.768 554.622 146.816 556.829 144.328 559.64C135.776 568.86 127.939 578.659 120.879 588.961L120.928 589.054Z" fill="#222222"/>
<path d="M166.874 554.486L149.713 544.691C147.991 543.708 145.758 544.24 144.725 545.88L142.066 550.105C141.034 551.745 141.593 553.871 143.315 554.854L160.476 564.649C162.198 565.632 164.431 565.099 165.463 563.46L168.123 559.235C169.155 557.595 168.596 555.469 166.874 554.486Z" fill="white"/>
<path d="M162.359 566.355C161.496 566.35 160.651 566.116 159.919 565.681L142.839 555.9C141.73 555.265 140.932 554.237 140.619 553.042C140.459 552.449 140.425 551.831 140.517 551.225C140.609 550.619 140.826 550.036 141.155 549.511L143.839 545.282C144.504 544.226 145.581 543.465 146.834 543.164C148.087 542.863 149.415 543.049 150.525 543.679L167.605 553.46C168.714 554.095 169.512 555.123 169.825 556.318C169.985 556.911 170.019 557.529 169.927 558.135C169.835 558.741 169.618 559.323 169.289 559.849L166.605 564.101C166.166 564.797 165.542 565.372 164.798 565.767C164.053 566.162 163.212 566.365 162.359 566.355ZM147.89 545.445H147.304C146.692 545.599 146.167 545.974 145.84 546.49L143.181 550.719C142.861 551.237 142.765 551.853 142.912 552.438C142.985 552.723 143.118 552.992 143.302 553.228C143.487 553.463 143.719 553.661 143.986 553.809L161.066 563.613C161.608 563.903 162.245 563.985 162.848 563.842C163.451 563.7 163.974 563.344 164.311 562.846L166.971 558.595C167.29 558.076 167.387 557.46 167.239 556.875C167.166 556.59 167.034 556.321 166.849 556.086C166.665 555.85 166.432 555.653 166.165 555.505L149.085 545.7C148.735 545.511 148.341 545.407 147.939 545.398L147.89 545.445Z" fill="#222222"/>
<path d="M378.982 373.402C364.659 373.402 341.211 376.771 315.201 382.974C298.318 386.901 281.756 391.987 265.644 398.192L270.305 415.896C287.586 414.075 304.709 411.086 321.545 406.951C347.531 400.747 369.881 393.197 382.545 386.784L378.982 373.402Z" fill="white"/>
<path d="M270.305 416.988C270.024 416.99 269.75 416.902 269.529 416.737C269.307 416.572 269.151 416.341 269.085 416.081L264.424 398.378C264.354 398.1 264.389 397.808 264.523 397.553C264.657 397.298 264.881 397.096 265.156 396.984C281.342 390.842 297.968 385.811 314.908 381.928C340.064 375.934 364.025 372.333 378.958 372.31C379.24 372.317 379.512 372.411 379.732 372.579C379.952 372.747 380.109 372.979 380.178 373.239L383.667 386.505C383.737 386.765 383.712 387.04 383.597 387.285C383.482 387.53 383.283 387.73 383.033 387.853C369.832 394.567 346.945 402.141 321.764 408.136C304.891 412.291 287.726 415.288 270.402 417.104L270.305 416.988ZM267.133 398.796L271.256 414.502C288.091 412.671 304.772 409.729 321.179 405.696C345.579 399.865 367.856 392.569 381.007 386.064L377.982 374.61C363.171 374.773 339.942 378.327 315.518 384.136C299.055 387.958 282.888 392.857 267.133 398.796Z" fill="#222222"/>
<path d="M416.875 378.513C425.025 376.747 494.492 376.19 488.733 354.281C482.975 332.372 421.438 363.063 413.362 365.177L416.875 378.513Z" fill="white"/>
<path d="M416.876 379.605C416.595 379.607 416.321 379.519 416.1 379.355C415.878 379.19 415.722 378.959 415.656 378.699L412.142 365.363C412.102 365.212 412.093 365.055 412.117 364.901C412.14 364.747 412.196 364.598 412.28 364.465C412.363 364.331 412.474 364.214 412.605 364.121C412.737 364.028 412.886 363.961 413.045 363.923C414.411 363.551 417.754 362.203 421.975 360.461C439.055 353.491 470.58 340.527 484.049 346.869C485.508 347.567 486.793 348.557 487.814 349.771C488.834 350.985 489.568 352.395 489.964 353.904C490.36 355.412 490.41 356.985 490.109 358.514C489.808 360.042 489.164 361.491 488.221 362.761C479.486 374.378 445.18 377.142 426.733 378.629C422.17 379.001 418.559 379.28 417.144 379.582L416.876 379.605ZM414.875 365.874L417.803 377.049C419.682 376.794 422.683 376.538 426.514 376.236C443.276 374.889 478.12 372.101 486.172 361.367C486.904 360.379 487.403 359.252 487.637 358.063C487.87 356.875 487.831 355.652 487.523 354.479C487.215 353.306 486.645 352.21 485.852 351.265C485.058 350.321 484.061 349.551 482.926 349.007C470.507 343.152 438.396 356.325 422.951 362.668C419.413 364.225 416.632 365.363 414.875 365.967V365.874Z" fill="#222222"/>
<path d="M423.361 378.962L418.501 360.481C418.013 358.626 416.038 357.5 414.091 357.964L409.073 359.161C407.125 359.625 405.942 361.505 406.429 363.36L411.29 381.84C411.778 383.695 413.752 384.822 415.7 384.357L420.718 383.161C422.666 382.696 423.849 380.816 423.361 378.962Z" fill="white"/>
<path d="M414.85 385.692C413.761 385.691 412.702 385.343 411.844 384.703C410.987 384.063 410.378 383.168 410.117 382.161L405.237 363.69C405.076 363.095 405.041 362.476 405.134 361.868C405.226 361.26 405.444 360.675 405.776 360.148C406.107 359.621 406.545 359.161 407.064 358.796C407.583 358.431 408.173 358.168 408.799 358.021L413.826 356.836C414.447 356.687 415.094 356.655 415.728 356.743C416.363 356.831 416.973 357.038 417.523 357.351C418.074 357.664 418.554 358.077 418.937 358.567C419.32 359.056 419.598 359.613 419.755 360.205L424.635 378.792C424.792 379.385 424.824 380.003 424.73 380.608C424.635 381.213 424.417 381.795 424.086 382.32C423.754 382.844 423.318 383.301 422.801 383.665C422.284 384.028 421.696 384.291 421.072 384.438L416.046 385.646C415.651 385.708 415.249 385.724 414.85 385.692ZM412.557 381.58C412.723 382.154 413.115 382.645 413.651 382.952C414.186 383.259 414.825 383.358 415.436 383.23L420.462 382.021C421.065 381.863 421.581 381.49 421.903 380.98C422.226 380.47 422.33 379.861 422.195 379.28L417.315 360.693C417.147 360.119 416.754 359.628 416.217 359.322C415.953 359.168 415.66 359.065 415.354 359.021C415.047 358.977 414.735 358.993 414.436 359.067L409.409 360.252C408.806 360.41 408.291 360.783 407.968 361.293C407.646 361.803 407.542 362.412 407.677 362.993L412.557 381.58Z" fill="#222222"/>
<path d="M108.118 438.014C120.757 431.601 143.108 424.074 169.118 417.824C185.951 413.684 203.075 410.702 220.358 408.902L225.018 426.606C208.905 432.774 192.342 437.821 175.462 441.708C149.452 447.911 126.003 451.28 111.705 451.303L108.118 438.014Z" fill="white"/>
<path d="M111.632 452.488C111.351 452.49 111.077 452.402 110.856 452.238C110.634 452.073 110.478 451.842 110.412 451.582L106.898 438.293C106.832 438.033 106.859 437.76 106.974 437.516C107.089 437.272 107.285 437.071 107.532 436.945C120.733 430.254 143.644 422.68 168.801 416.662C185.635 412.519 202.758 409.53 220.041 407.717C220.344 407.676 220.652 407.747 220.901 407.916C221.151 408.084 221.323 408.338 221.383 408.624L226.043 426.327C226.114 426.605 226.079 426.897 225.945 427.152C225.811 427.407 225.586 427.609 225.311 427.721C209.128 433.894 192.502 438.956 175.56 442.869C150.403 448.887 126.467 452.465 111.51 452.488H111.632ZM109.582 438.548L112.608 450.002C127.418 449.816 150.647 446.285 175.072 440.453C191.537 436.648 207.704 431.757 223.457 425.816L219.333 410.111C202.494 412.003 185.813 415.007 169.411 419.102C144.986 424.817 122.734 432.136 109.582 438.641V438.548Z" fill="#222222"/>
<path d="M77.1788 459.528C69.1268 461.619 7.56559 492.287 1.80719 470.424C-3.95121 448.562 65.5156 447.958 73.6652 446.192L77.1788 459.528Z" fill="white"/>
<path d="M15.7883 479.508C12.6107 479.617 9.44873 479.037 6.54071 477.812C5.08402 477.112 3.80285 476.12 2.7843 474.906C1.76575 473.692 1.03368 472.283 0.637834 470.775C0.241991 469.268 0.191653 467.696 0.490249 466.169C0.788845 464.641 1.42937 463.192 2.3683 461.921C11.1035 450.304 45.4099 447.539 63.8563 446.053C68.4191 445.681 72.0303 445.402 73.4455 445.1C73.6026 445.058 73.767 445.048 73.9285 445.069C74.09 445.091 74.2453 445.143 74.3847 445.224C74.5241 445.304 74.6447 445.411 74.7392 445.538C74.8336 445.664 74.8999 445.808 74.9339 445.96L78.4475 459.295C78.5303 459.6 78.4848 459.924 78.3207 460.197C78.1567 460.471 77.887 460.672 77.5691 460.759C76.1783 461.108 72.8355 462.478 68.6387 464.198C54.8039 469.797 31.3311 479.508 15.7883 479.508ZM72.7867 447.632C70.9323 447.888 67.9067 448.12 64.0759 448.446C47.3131 449.793 12.4699 452.581 4.41791 463.315C3.64478 464.299 3.12134 465.441 2.88853 466.65C2.65572 467.859 2.71984 469.103 3.0759 470.285C3.34566 471.47 3.90024 472.58 4.69612 473.528C5.492 474.475 6.50755 475.234 7.66311 475.745C20.0827 481.6 52.1931 468.426 67.6383 462.107C71.1763 460.643 73.9579 459.505 75.7147 458.901L72.7867 447.632Z" fill="#222222"/>
<path d="M83.7322 459.98L78.8715 441.499C78.3837 439.644 76.4093 438.518 74.4616 438.982L69.4438 440.179C67.496 440.643 66.3125 442.523 66.8003 444.378L71.661 462.858C72.1488 464.713 74.1232 465.84 76.0709 465.375L81.0887 464.179C83.0365 463.714 84.22 461.834 83.7322 459.98Z" fill="white"/>
<path d="M75.2022 466.707C74.3407 466.691 73.4988 466.459 72.7622 466.033C72.2087 465.721 71.7255 465.308 71.3402 464.818C70.955 464.327 70.6754 463.769 70.5174 463.175L65.6374 444.705C65.4768 444.11 65.4418 443.49 65.5343 442.882C65.6268 442.274 65.845 441.69 66.1763 441.163C66.5076 440.636 66.9454 440.176 67.4644 439.811C67.9834 439.446 68.5732 439.183 69.1998 439.036L74.2262 437.851C74.8478 437.701 75.4944 437.67 76.1289 437.758C76.7634 437.846 77.3734 438.053 77.924 438.366C78.4747 438.678 78.9552 439.092 79.3381 439.581C79.7209 440.071 79.9987 440.628 80.1554 441.22L85.0354 459.807C85.1927 460.399 85.226 461.014 85.1333 461.618C85.0406 462.223 84.8238 462.803 84.4952 463.328C84.1666 463.852 83.7328 464.31 83.2184 464.674C82.704 465.039 82.1192 465.303 81.4974 465.452L76.4466 466.66C76.0356 466.727 75.6174 466.742 75.2022 466.707ZM75.3974 440.105H74.8118L69.7854 441.313C69.1828 441.472 68.667 441.844 68.3447 442.355C68.0223 442.865 67.9179 443.473 68.053 444.054L72.933 462.525C73.0952 463.108 73.489 463.608 74.031 463.919C74.5688 464.217 75.206 464.309 75.8122 464.175L80.863 462.966C81.4612 462.803 81.9712 462.428 82.2887 461.919C82.6062 461.409 82.7072 460.803 82.571 460.225L77.691 441.754C77.5589 441.266 77.2637 440.832 76.85 440.518C76.4363 440.204 75.9265 440.026 75.3974 440.012V440.105Z" fill="#222222"/>
<path d="M368.198 474.862C358.072 465.22 338.918 451.814 316.006 438.687C301.143 430.081 285.65 422.502 269.646 416.012L259.886 431.648C273.431 442.002 287.742 451.412 302.708 459.807C325.693 472.933 347.116 482.622 360.804 486.595L368.198 474.862Z" fill="white"/>
<path d="M360.804 487.687H360.438C346.14 483.528 324.326 473.468 302.074 460.782C287.048 452.352 272.68 442.903 259.081 432.507C258.849 432.326 258.695 432.07 258.646 431.788C258.596 431.507 258.656 431.218 258.812 430.974L268.572 415.315C268.722 415.068 268.96 414.883 269.244 414.793C269.527 414.703 269.835 414.715 270.11 414.827C286.116 421.349 301.609 428.958 316.47 437.596C338.698 450.304 358.316 463.872 368.905 473.932C369.103 474.122 369.229 474.368 369.265 474.633C369.3 474.897 369.242 475.166 369.1 475.396L361.78 487.152C361.671 487.306 361.526 487.433 361.357 487.526C361.188 487.618 360.999 487.673 360.804 487.687ZM261.521 431.276C274.791 441.291 288.773 450.42 303.367 458.598C324.961 470.935 346.116 480.74 360.243 484.992L366.612 474.862C356.022 465.011 336.966 451.861 315.372 439.547C300.899 431.152 285.832 423.723 270.28 417.313L261.521 431.276Z" fill="#222222"/>
<path d="M391.207 503.857C398.283 508.109 447.864 554.459 460.015 535.129C472.166 515.799 405.896 496.027 398.649 492.078L391.207 503.857Z" fill="white"/>
<path d="M450.913 541.007C435.785 541.007 411.434 521.445 398.039 510.664C394.525 507.83 391.768 505.6 390.548 504.879C390.272 504.712 390.074 504.449 389.997 504.146C389.919 503.842 389.968 503.523 390.133 503.253L397.453 491.45C397.625 491.183 397.9 490.991 398.218 490.913C398.537 490.835 398.875 490.877 399.161 491.032C400.405 491.706 403.773 492.984 408.043 494.61C425.245 501.116 457.233 513.197 462.04 526.788C462.555 528.264 462.73 529.828 462.553 531.374C462.375 532.92 461.849 534.411 461.01 535.746C460.172 537.081 459.04 538.227 457.694 539.107C456.347 539.987 454.816 540.58 453.207 540.844C452.448 540.953 451.681 541.008 450.913 541.007ZM392.89 503.532C394.403 504.601 396.721 506.459 399.673 508.829C412.508 519.145 439.25 540.589 452.89 538.475C454.137 538.261 455.321 537.796 456.363 537.111C457.406 536.426 458.282 535.537 458.934 534.502C459.585 533.468 459.997 532.313 460.142 531.115C460.286 529.917 460.159 528.703 459.771 527.555C455.379 515.055 422.829 502.742 407.213 496.841C403.626 495.47 400.82 494.401 399.112 493.658L392.89 503.532Z" fill="#222222"/>
<path d="M395.475 508.549L405.762 492.208C406.794 490.568 406.235 488.442 404.513 487.459L400.076 484.927C398.354 483.944 396.121 484.476 395.089 486.116L384.802 502.457C383.769 504.096 384.329 506.223 386.051 507.206L390.487 509.738C392.21 510.721 394.443 510.189 395.475 508.549Z" fill="white"/>
<path d="M392.354 511.501C391.492 511.485 390.65 511.253 389.914 510.827L385.448 508.295C384.896 507.981 384.414 507.567 384.03 507.076C383.647 506.585 383.369 506.027 383.212 505.433C383.056 504.839 383.024 504.222 383.119 503.617C383.214 503.011 383.433 502.43 383.765 501.905L394.062 485.642C394.393 485.118 394.829 484.661 395.345 484.298C395.862 483.935 396.449 483.673 397.072 483.526C397.696 483.379 398.343 483.351 398.978 483.443C399.613 483.535 400.222 483.745 400.772 484.062L405.212 486.595C405.765 486.908 406.247 487.322 406.63 487.813C407.014 488.304 407.292 488.862 407.449 489.456C407.605 490.05 407.637 490.667 407.542 491.272C407.447 491.878 407.228 492.459 406.896 492.984L396.624 509.247C396.293 509.777 395.856 510.238 395.336 510.605C394.817 510.972 394.226 511.237 393.598 511.385C393.19 511.474 392.772 511.513 392.354 511.501ZM398.21 485.689C398.015 485.666 397.818 485.666 397.624 485.689C397.324 485.758 397.042 485.884 396.795 486.06C396.547 486.236 396.34 486.457 396.184 486.711L385.888 502.974C385.574 503.486 385.478 504.093 385.619 504.67C385.688 504.96 385.818 505.234 386.003 505.474C386.188 505.714 386.423 505.915 386.693 506.064L391.158 508.62C391.703 508.907 392.342 508.986 392.945 508.839C393.549 508.692 394.07 508.331 394.403 507.83L404.7 491.567C405.009 491.046 405.096 490.431 404.941 489.851C404.787 489.271 404.403 488.771 403.87 488.453L399.43 485.921C399.051 485.744 398.631 485.664 398.21 485.689Z" fill="#222222"/>
<path d="M128.712 338.064C142.4 342.037 163.823 351.725 186.808 364.852C201.778 373.241 216.089 382.651 229.63 393.011L219.87 408.647C203.864 402.161 188.37 394.582 173.51 385.971C150.525 372.844 131.444 359.439 121.318 349.82L128.712 338.064Z" fill="white"/>
<path d="M219.797 409.809C219.636 409.843 219.469 409.843 219.309 409.809C203.302 403.287 187.809 395.678 172.949 387.04C150.696 374.354 131.103 360.763 120.513 350.703C120.315 350.514 120.189 350.268 120.154 350.003C120.118 349.738 120.176 349.469 120.318 349.239L127.638 337.483C127.783 337.257 128.004 337.083 128.265 336.991C128.526 336.898 128.812 336.891 129.078 336.972C143.376 341.108 165.214 351.168 187.467 363.876C202.485 372.296 216.845 381.738 230.435 392.128C230.67 392.307 230.83 392.56 230.884 392.842C230.937 393.124 230.882 393.415 230.728 393.661L220.968 409.321C220.836 409.493 220.657 409.63 220.452 409.715C220.246 409.801 220.02 409.833 219.797 409.809ZM122.904 349.564C133.518 359.439 152.575 372.565 174.144 384.902C188.62 393.286 203.686 400.707 219.236 407.113L227.971 393.173C214.707 383.14 200.733 373.987 186.149 365.781C164.531 353.468 143.376 343.64 129.248 339.388L122.904 349.564Z" fill="#222222"/>
<path d="M90.8915 332.465C83.5715 328.538 17.3255 308.767 29.5011 289.413C41.6767 270.06 91.2331 316.434 98.3091 320.685L90.8915 332.465Z" fill="white"/>
<path d="M90.8914 333.673C90.668 333.677 90.4478 333.621 90.257 333.51C89.0126 332.836 85.6454 331.559 81.3754 329.932C64.2954 323.427 32.185 311.346 27.3782 297.754C26.8833 296.285 26.7244 294.733 26.9122 293.201C27.1 291.669 27.6301 290.193 28.4669 288.872C29.3037 287.552 30.4278 286.417 31.7635 285.545C33.0993 284.672 34.6158 284.082 36.211 283.814C50.851 281.491 77.3494 302.61 91.477 314.017C94.9906 316.852 97.7722 319.082 98.9678 319.803C99.249 319.966 99.4505 320.229 99.5283 320.534C99.6061 320.839 99.5537 321.161 99.3826 321.429L92.0626 333.231C91.9247 333.396 91.744 333.523 91.5386 333.6C91.3332 333.678 91.1101 333.703 90.8914 333.673ZM38.6754 285.928C37.9895 285.927 37.3045 285.973 36.6258 286.068C35.3656 286.246 34.165 286.697 33.1161 287.386C32.0672 288.074 31.1978 288.983 30.5746 290.041C29.8824 291.064 29.4494 292.226 29.3096 293.435C29.1699 294.645 29.3273 295.869 29.7694 297.011C34.2102 309.51 66.6866 321.824 82.3026 327.748C85.9138 329.096 88.6954 330.072 90.4034 330.931L96.6254 321.034C95.1126 319.965 92.819 318.107 89.8666 315.737C77.6178 305.886 52.7786 285.928 38.6754 285.928Z" fill="#222222"/>
<path d="M95.1437 337.183L105.431 320.843C106.463 319.203 105.904 317.077 104.182 316.094L99.7448 313.562C98.0226 312.579 95.7896 313.111 94.7573 314.751L84.4704 331.091C83.4381 332.731 83.9973 334.857 85.7194 335.84L90.1562 338.373C91.8784 339.356 94.1113 338.823 95.1437 337.183Z" fill="white"/>
<path d="M92.0384 340.109C91.1791 340.1 90.3374 339.876 89.5984 339.458L85.1576 336.926C84.6053 336.612 84.1234 336.198 83.7397 335.707C83.3559 335.216 83.0778 334.658 82.9214 334.064C82.7649 333.47 82.7332 332.853 82.8281 332.248C82.9229 331.642 83.1424 331.061 83.474 330.536L93.7464 314.273C94.0753 313.747 94.5101 313.288 95.0259 312.923C95.5416 312.557 96.128 312.293 96.7515 312.144C97.375 311.995 98.0233 311.965 98.6591 312.055C99.2949 312.145 99.9057 312.354 100.456 312.67L104.922 315.226C105.986 315.88 106.742 316.903 107.028 318.078C107.315 319.252 107.111 320.488 106.459 321.522L96.162 337.785C95.7425 338.477 95.1426 339.055 94.4203 339.462C93.6979 339.869 92.8775 340.092 92.0384 340.109ZM97.8944 314.319C97.4839 314.323 97.0808 314.424 96.7226 314.615C96.3643 314.806 96.0624 315.08 95.8448 315.411L85.548 331.675C85.246 332.193 85.1638 332.802 85.318 333.377C85.4723 333.951 85.8513 334.448 86.3776 334.765L90.8184 337.297C91.3625 337.594 92.0056 337.68 92.6144 337.537C93.2231 337.394 93.7508 337.034 94.088 336.531L104.36 320.267C104.672 319.749 104.762 319.137 104.612 318.557C104.462 317.977 104.084 317.475 103.555 317.154L99.1388 314.552C98.7551 314.363 98.3257 314.275 97.8944 314.296V314.319Z" fill="#222222"/>
<path d="M203.424 253.239C170.504 261.078 140.765 278.038 117.969 301.972C95.172 325.906 80.3419 355.74 75.354 387.701C70.3661 419.661 75.4445 452.312 89.9469 481.524C104.449 510.736 127.724 535.197 156.828 551.813C185.931 568.428 219.556 576.452 253.449 574.869C287.342 573.287 319.982 562.169 347.238 542.922C374.495 523.675 395.145 497.164 406.576 466.741C418.007 436.318 419.707 403.35 411.459 372.008C400.403 329.995 372.278 293.883 333.266 271.611C294.255 249.339 247.552 242.731 203.424 253.239ZM277.259 533.898C251.878 539.956 225.18 538.712 200.541 530.322C175.903 521.933 154.43 506.774 138.84 486.764C123.249 466.754 114.24 442.792 112.952 417.906C111.665 393.021 118.156 368.331 131.606 346.959C145.055 325.587 164.859 308.492 188.512 297.837C212.165 287.182 238.605 283.445 264.489 287.098C290.373 290.752 314.537 301.632 333.927 318.363C353.316 335.094 367.06 356.924 373.419 381.092C381.939 413.497 376.596 447.797 358.563 476.451C340.531 505.106 311.286 525.769 277.259 533.898Z" fill="white"/>
<path d="M245.148 576.275C201.12 576.302 158.739 560.335 126.648 531.633C94.5569 502.93 75.1728 463.652 72.4483 421.809C69.7239 379.966 83.8644 338.71 111.986 306.452C140.108 274.195 180.093 253.367 223.788 248.214C267.482 243.062 311.596 253.974 347.132 278.725C382.668 303.476 406.95 340.202 415.028 381.414C423.105 422.625 414.369 465.219 390.6 500.508C366.832 535.798 329.821 561.126 287.116 571.327C273.392 574.602 259.297 576.264 245.148 576.275ZM245.148 249.522C209.674 249.514 175.082 260.052 146.201 279.666C117.32 299.28 95.5908 326.99 84.0458 358.929C72.5009 390.868 71.7165 425.442 81.8022 457.826C91.8879 490.21 112.34 518.788 140.305 539.571C168.27 560.354 202.351 572.305 237.792 573.756C273.234 575.207 308.267 566.085 338.002 547.664C367.736 529.244 390.689 502.443 403.657 471.003C416.625 439.562 418.96 405.051 410.336 372.287C401.13 337.204 379.867 306.06 349.93 283.81C319.993 261.56 283.101 249.483 245.124 249.498L245.148 249.522ZM245.148 538.87C211.149 538.868 178.43 526.518 153.663 504.339C128.897 482.159 113.948 451.819 111.864 419.506C109.78 387.193 120.719 355.34 142.45 330.442C164.181 305.544 195.067 289.475 228.811 285.513C262.555 281.551 296.616 289.994 324.048 309.12C351.48 328.246 370.217 356.615 376.44 388.442C382.662 420.269 375.901 453.157 357.535 480.402C339.169 507.646 310.581 527.194 277.6 535.059L277.307 533.898L277.6 535.059C266.979 537.59 256.072 538.869 245.124 538.87H245.148ZM245.148 286.904C226.578 286.887 208.217 290.628 191.28 297.879C174.344 305.13 159.219 315.725 146.908 328.963C134.597 342.201 125.381 357.778 119.871 374.664C114.361 391.55 112.683 409.357 114.947 426.907C117.212 444.457 123.367 461.349 133.006 476.462C142.645 491.575 155.547 504.566 170.857 514.572C186.167 524.579 203.536 531.373 221.812 534.504C240.089 537.635 258.855 537.033 276.868 532.736C307.878 525.339 334.979 507.405 353.07 482.309C371.161 457.212 378.994 426.685 375.096 396.473C371.198 366.261 355.836 338.448 331.903 318.268C307.97 298.088 277.116 286.934 245.148 286.904Z" fill="#222222"/>
<path d="M310.858 590.169L280.772 398.192C278.674 384.786 267.548 374.958 254.469 374.958H235.779C222.725 374.958 211.574 384.809 209.476 398.192L179.415 590.169H310.858Z" fill="white"/>
<path d="M310.857 591.377H179.415C179.234 591.374 179.056 591.336 178.892 591.264C178.728 591.192 178.582 591.088 178.463 590.959C178.346 590.825 178.259 590.668 178.208 590.5C178.158 590.332 178.145 590.156 178.17 589.983L208.255 397.959C210.451 383.88 222.041 373.681 235.803 373.681H254.469C268.231 373.681 279.821 383.88 282.017 397.959L312.126 589.983C312.166 590.332 312.061 590.682 311.833 590.959C311.71 591.089 311.559 591.193 311.391 591.264C311.223 591.336 311.042 591.375 310.857 591.377ZM180.879 589.054H309.418L279.528 398.401C277.527 385.506 266.986 376.167 254.469 376.167H235.779C223.286 376.167 212.745 385.46 210.72 398.401L180.879 589.054Z" fill="#222222"/>
<path d="M245.148 431.834C256.818 431.834 266.279 422.826 266.279 411.714C266.279 400.602 256.818 391.594 245.148 391.594C233.478 391.594 224.018 400.602 224.018 411.714C224.018 422.826 233.478 431.834 245.148 431.834Z" fill="#B3B3B3"/>
<path d="M100.505 309.626C99.9194 308.976 97.6746 306.095 94.9662 306.188C92.819 306.188 88.549 312.019 88.549 312.019C89.7641 310.54 90.4797 308.744 90.6017 306.87C90.7237 304.995 90.2462 303.129 89.2322 301.518C86.7922 298.474 81.107 298.312 79.4722 301.681C79.9772 301.024 80.3342 300.276 80.521 299.482C80.7077 298.689 80.7201 297.867 80.5575 297.068C80.3948 296.27 80.0605 295.512 79.5756 294.842C79.0908 294.173 78.4657 293.606 77.7398 293.177C74.7142 291.597 70.981 291.551 69.273 294.803C72.0302 292.48 72.323 289.715 70.0782 287.322C69.0972 286.55 67.9345 286.016 66.6895 285.765C65.4445 285.515 64.1543 285.555 62.929 285.882C52.9914 287.383 43.8041 291.83 36.6746 298.591C30.8674 304.074 21.0098 315.319 23.9378 323.427C25.2661 326.548 27.1296 329.437 29.4522 331.977C33.3153 337.175 37.8855 341.863 43.043 345.917C47.5283 349.097 52.6857 351.311 58.1584 352.407C63.6311 353.502 69.2883 353.452 74.7386 352.259C82.7906 350.401 84.0838 347.288 86.9386 340.271C90.013 332.767 103.872 313.437 100.505 309.626Z" fill="white"/>
<path d="M66.0034 354.443C57.4263 354.455 49.0772 351.813 42.2134 346.916C36.9626 342.788 32.3103 338.014 28.3786 332.72C25.9858 330.07 24.0653 327.064 22.6934 323.822C19.2286 314.273 31.7946 301.448 35.723 297.754C42.9986 290.814 52.3936 286.244 62.563 284.697C66.4426 284.139 69.151 284.697 70.8102 286.532C71.4129 287.121 71.8838 287.819 72.1942 288.586C72.5046 289.353 72.648 290.172 72.6158 290.993C74.5428 290.794 76.4858 291.193 78.1546 292.132C79.0501 292.619 79.8224 293.288 80.4168 294.091C81.0113 294.894 81.4134 295.811 81.595 296.778C81.6921 297.261 81.7411 297.751 81.7414 298.242C82.2261 298.1 82.7249 298.007 83.2298 297.963C84.5317 297.838 85.8458 298.026 87.052 298.509C88.2583 298.992 89.3182 299.755 90.135 300.728C91.3748 302.389 91.9621 304.412 91.7942 306.443C92.5946 305.641 93.6487 305.111 94.7954 304.933H94.9906C96.2408 305.092 97.4407 305.504 98.5097 306.141C99.5787 306.778 100.492 307.626 101.188 308.627L101.359 308.79C103.97 311.764 99.9194 319.338 93.429 330.583C91.45 333.833 89.6581 337.184 88.061 340.62C85.2794 347.59 83.7422 351.33 75.007 353.351C72.0617 354.053 69.0394 354.42 66.0034 354.443ZM65.2714 286.904C64.5281 286.906 63.7859 286.96 63.051 287.067C53.3666 288.516 44.4141 292.852 37.4798 299.45C29.9402 306.56 22.6934 316.503 25.0602 323.055C26.3608 326.043 28.1567 328.812 30.3794 331.257C34.1755 336.379 38.663 341.003 43.7262 345.011C48.0831 348.109 53.1006 350.26 58.4251 351.312C63.7497 352.364 69.2517 352.291 74.5434 351.098C81.9854 349.379 83.0346 346.776 85.8162 339.853C87.4602 336.304 89.3093 332.845 91.355 329.491C95.0638 323.078 101.237 312.321 99.5534 310.416L99.3582 310.207C98.7482 309.487 96.9182 307.373 95.015 307.396C92.8134 308.751 90.9616 310.561 89.5982 312.693C89.5037 312.821 89.3836 312.93 89.2448 313.014C89.1059 313.098 88.9511 313.155 88.7891 313.182C88.6271 313.209 88.4611 313.206 88.3006 313.172C88.1401 313.137 87.9882 313.074 87.8536 312.984C87.719 312.894 87.6044 312.779 87.5162 312.647C87.4281 312.515 87.3681 312.367 87.3398 312.213C87.3115 312.059 87.3154 311.901 87.3512 311.748C87.387 311.595 87.4541 311.451 87.5486 311.322C88.604 310.046 89.2313 308.497 89.3488 306.877C89.4663 305.257 89.0686 303.64 88.2074 302.238C87.6546 301.6 86.9437 301.102 86.1387 300.789C85.3338 300.477 84.46 300.36 83.5958 300.449C82.6698 300.518 81.802 300.906 81.1558 301.541C80.9589 301.865 80.7388 302.175 80.497 302.471C80.2988 302.691 80.0237 302.837 79.7221 302.88C79.4205 302.923 79.1126 302.862 78.8547 302.706C78.5969 302.551 78.4065 302.313 78.3182 302.035C78.23 301.757 78.2499 301.458 78.3742 301.193C78.5593 300.84 78.78 300.506 79.033 300.194C79.4614 299.299 79.581 298.299 79.3746 297.336C79.2659 296.703 79.013 296.101 78.6337 295.571C78.2543 295.041 77.7576 294.597 77.1786 294.269C76.5071 293.865 75.7582 293.591 74.9752 293.464C74.1921 293.336 73.3903 293.357 72.6158 293.526C72.3274 293.594 72.0545 293.712 71.8106 293.874C71.3448 294.546 70.7959 295.162 70.1758 295.71C69.9509 295.891 69.6656 295.991 69.3706 295.991C69.0757 295.991 68.7903 295.891 68.5654 295.71C68.3281 295.539 68.1615 295.294 68.0946 295.018C68.0277 294.742 68.0648 294.452 68.1994 294.199C68.6107 293.398 69.2022 292.692 69.9318 292.132C70.3016 291.471 70.4281 290.711 70.291 289.974C70.1538 289.237 69.761 288.565 69.1754 288.066C68.6517 287.615 68.0314 287.277 67.3574 287.077C66.6834 286.876 65.9717 286.817 65.2714 286.904Z" fill="#222222"/>
<path d="M37.358 325.681C37.1427 325.682 36.9313 325.626 36.748 325.518C36.6027 325.443 36.4745 325.341 36.3711 325.218C36.2677 325.095 36.191 324.954 36.1455 324.802C36.1001 324.651 36.0868 324.492 36.1065 324.336C36.1261 324.18 36.1783 324.029 36.26 323.892C43.58 311.067 67.4432 294.525 68.468 293.828C68.6004 293.733 68.7512 293.665 68.9117 293.626C69.0722 293.588 69.2392 293.58 69.4028 293.604C69.5664 293.628 69.7233 293.683 69.8645 293.765C70.0056 293.847 70.1281 293.955 70.2248 294.083C70.4165 294.343 70.4932 294.664 70.4384 294.977C70.3837 295.29 70.2017 295.57 69.932 295.756C69.688 295.942 45.532 312.693 38.456 325.053C38.3498 325.243 38.1916 325.401 37.9982 325.512C37.8048 325.622 37.5835 325.681 37.358 325.681Z" fill="#222222"/>
<path d="M52.0223 335.137C51.7989 335.141 51.5788 335.085 51.3879 334.974C51.2447 334.897 51.1189 334.793 51.0179 334.67C50.9169 334.546 50.8427 334.404 50.7995 334.253C50.7564 334.102 50.7453 333.944 50.7667 333.788C50.7881 333.633 50.8417 333.483 50.9243 333.348C59.3911 319.593 77.7643 301.611 78.4963 300.821C78.7366 300.604 79.0555 300.482 79.3869 300.482C79.7184 300.482 80.0372 300.604 80.2775 300.821C80.5115 301.047 80.6426 301.352 80.6426 301.669C80.6426 301.986 80.5115 302.291 80.2775 302.517C80.0823 302.703 61.3919 321.104 53.0715 334.556C52.9651 334.731 52.8122 334.877 52.6282 334.979C52.4441 335.081 52.2352 335.135 52.0223 335.137Z" fill="#222222"/>
<path d="M65.7107 342.432C65.5251 342.464 65.335 342.464 65.1495 342.432C64.8545 342.287 64.6293 342.04 64.5203 341.742C64.4113 341.443 64.4269 341.116 64.5639 340.829C72.0791 326.006 87.0363 311.926 87.6707 311.322C87.911 311.105 88.2298 310.984 88.5613 310.984C88.8927 310.984 89.2115 311.105 89.4519 311.322C89.5707 311.433 89.6651 311.565 89.7295 311.71C89.794 311.856 89.8272 312.012 89.8272 312.17C89.8272 312.328 89.794 312.485 89.7295 312.631C89.6651 312.776 89.5707 312.908 89.4519 313.018C89.3055 313.158 74.1775 327.4 66.8575 341.851C66.739 342.037 66.5699 342.19 66.3681 342.292C66.1662 342.394 65.9391 342.442 65.7107 342.432Z" fill="#222222"/>
<path d="M451.45 405.557C445.434 406.944 439.096 406.252 433.565 403.605C430.839 402.255 428.542 400.236 426.912 397.756C425.282 395.277 424.377 392.427 424.293 389.503C424.3 387.896 424.674 386.31 425.391 384.856C426.576 382.668 428.408 380.859 430.662 379.652C440.056 374.331 465.529 371.659 472.434 381.534C481.755 394.823 462.284 403.373 451.45 405.557Z" fill="white"/>
<path d="M445.009 407.485C440.814 407.541 436.671 406.598 432.955 404.744C430.018 403.295 427.546 401.119 425.798 398.445C424.05 395.771 423.092 392.698 423.024 389.549C423.047 387.775 423.463 386.025 424.244 384.414C425.541 382.01 427.552 380.023 430.027 378.699C440.153 372.96 466.115 370.428 473.483 381.022C474.814 382.644 475.68 384.568 475.997 386.604C476.313 388.64 476.069 390.719 475.289 392.639C471.775 400.84 458.819 405.441 451.719 406.858C449.511 407.292 447.262 407.502 445.009 407.485ZM453.183 376.19C445.58 376.066 438.054 377.658 431.223 380.836C429.16 381.906 427.466 383.519 426.343 385.483C425.714 386.788 425.389 388.207 425.391 389.642C425.485 392.346 426.331 394.979 427.845 397.269C429.358 399.559 431.484 401.425 434.004 402.676C439.289 405.198 445.346 405.84 451.084 404.488C459.649 402.769 470.116 398.029 472.849 391.71C473.433 390.161 473.596 388.497 473.323 386.872C473.05 385.247 472.349 383.714 471.287 382.416C468.311 377.793 460.966 376.12 453.183 376.12V376.19Z" fill="#222222"/>
<path d="M462.699 329.073C459.072 327.989 455.269 327.54 451.475 327.748C447.497 328.074 441.715 328.771 438.689 331.35C437.838 332.036 437.172 332.907 436.748 333.89C436.323 334.872 436.152 335.937 436.249 336.995C436.459 338.046 436.92 339.038 437.597 339.892C438.274 340.746 439.149 341.44 440.153 341.921C442.162 342.857 444.324 343.462 446.546 343.71C451.889 344.546 481.487 349.727 475.997 336.554C473.874 331.814 467.213 330.304 462.699 329.073Z" fill="white"/>
<path d="M463.601 346.614C457.968 346.511 452.354 345.967 446.814 344.987H446.18C443.818 344.725 441.523 344.073 439.397 343.059C438.223 342.488 437.203 341.666 436.416 340.659C435.629 339.652 435.096 338.486 434.858 337.251C434.737 335.995 434.937 334.73 435.443 333.564C435.949 332.399 436.745 331.367 437.762 330.56C441.007 327.818 446.668 327.028 451.255 326.633C455.206 326.417 459.165 326.881 462.943 328.004L463.699 328.213C468.433 329.468 474.923 331.164 477.021 336.205C477.635 337.295 477.913 338.527 477.822 339.761C477.732 340.994 477.276 342.178 476.509 343.175C474.508 345.429 470.238 346.614 463.601 346.614ZM453.28 328.864C452.67 328.864 452.06 328.864 451.475 328.864C447.619 329.189 442.154 329.886 439.421 332.186C438.705 332.742 438.142 333.455 437.78 334.265C437.419 335.075 437.27 335.956 437.347 336.833C437.533 337.699 437.924 338.513 438.491 339.214C439.057 339.915 439.784 340.483 440.617 340.875C442.501 341.734 444.52 342.291 446.595 342.525L447.229 342.641C466.456 345.708 472.703 343.756 474.557 341.549C475.038 340.866 475.307 340.068 475.333 339.246C475.359 338.424 475.141 337.611 474.703 336.902C473.044 332.976 467.261 331.442 463.016 330.327L462.259 330.118C459.339 329.317 456.319 328.895 453.28 328.864Z" fill="#222222"/>
<path d="M421.414 341.386C422.219 340.991 425.44 339.063 427.904 340.225C429.856 341.084 431.491 347.961 431.491 347.961C430.959 346.15 431.017 344.227 431.658 342.447C432.298 340.667 433.491 339.115 435.078 337.994C438.47 336.043 443.886 337.994 444.106 341.735C443.903 340.946 443.873 340.125 444.019 339.325C444.164 338.524 444.481 337.761 444.951 337.083C445.421 336.404 446.032 335.826 446.747 335.383C447.463 334.94 448.266 334.643 449.108 334.509C452.548 334.138 456.013 335.485 456.306 339.156C454.72 335.926 455.525 333.371 458.551 331.954C459.771 331.604 461.061 331.538 462.313 331.76C463.565 331.982 464.743 332.487 465.749 333.231C474.328 338.242 481.023 345.708 484.878 354.56C488.05 361.739 492.638 375.702 486.66 382.138C484.171 384.526 481.296 386.518 478.144 388.039C472.47 391.438 466.349 394.109 459.942 395.985C454.493 397.299 448.808 397.462 443.287 396.463C437.765 395.463 432.54 393.326 427.978 390.2C421.292 385.553 421.341 382.184 421.56 374.68C421.78 366.571 416.778 343.663 421.414 341.386Z" fill="white"/>
<path d="M450.499 398.192C442.138 398.2 433.989 395.687 427.221 391.013C419.901 385.971 420.072 381.905 420.292 374.517C420.199 370.755 419.89 367.001 419.364 363.272C417.876 350.517 417.193 342.037 420.804 340.248L421.024 340.132C422.088 339.455 423.295 339.009 424.559 338.825C425.824 338.64 427.116 338.721 428.344 339.063C429.322 339.656 430.081 340.525 430.515 341.549C431.17 339.615 432.528 337.967 434.346 336.902C435.489 336.302 436.774 335.988 438.079 335.988C439.385 335.988 440.669 336.302 441.812 336.902C442.265 337.119 442.691 337.384 443.081 337.692C443.283 337.242 443.519 336.808 443.789 336.391C444.349 335.552 445.096 334.84 445.977 334.306C446.859 333.772 447.852 333.429 448.888 333.301C450.805 333.039 452.759 333.381 454.452 334.277C454.747 333.501 455.207 332.791 455.803 332.191C456.399 331.592 457.119 331.115 457.916 330.792C460.161 329.746 462.796 330.188 466.286 332.116C475.102 337.252 481.986 344.913 485.952 354.002C488.099 358.858 494.541 375.26 487.489 382.835C484.917 385.332 481.934 387.412 478.656 388.991C472.89 392.44 466.671 395.151 460.161 397.053C457.004 397.82 453.757 398.202 450.499 398.192ZM421.951 342.432C419.511 343.593 421.024 355.768 421.951 363.063C422.501 366.915 422.819 370.793 422.902 374.68C422.683 382.114 422.61 384.879 428.807 389.201C433.213 392.236 438.267 394.312 443.61 395.279C448.952 396.247 454.453 396.083 459.722 394.8C466.007 392.938 472.011 390.306 477.583 386.97C480.615 385.518 483.383 383.612 485.781 381.324C490.661 376.143 487.904 364.318 483.805 355.001C480.05 346.383 473.524 339.12 465.163 334.254C462.577 332.767 460.625 332.372 459.185 333.022C458.427 333.251 457.773 333.718 457.33 334.347C456.886 334.976 456.68 335.729 456.745 336.484C457.194 337.273 457.461 338.144 457.526 339.04C457.61 339.348 457.562 339.675 457.393 339.95C457.224 340.224 456.947 340.423 456.623 340.503C456.3 340.584 455.956 340.538 455.668 340.377C455.379 340.216 455.17 339.952 455.086 339.644C454.722 338.905 454.459 338.124 454.305 337.32C454.128 337.097 453.923 336.894 453.695 336.716C453.049 336.276 452.317 335.961 451.543 335.789C450.768 335.618 449.966 335.593 449.181 335.717C448.517 335.815 447.884 336.049 447.324 336.402C446.764 336.755 446.29 337.219 445.936 337.762C445.351 338.574 445.052 339.542 445.082 340.527C445.204 340.904 445.278 341.294 445.302 341.688C445.313 341.982 445.213 342.27 445.021 342.501C444.828 342.731 444.556 342.888 444.252 342.943C443.95 342.995 443.638 342.938 443.376 342.783C443.115 342.629 442.923 342.388 442.837 342.107C442.719 341.751 442.637 341.385 442.593 341.015C442.234 340.155 441.545 339.457 440.666 339.063C439.897 338.668 439.038 338.462 438.165 338.462C437.292 338.462 436.432 338.668 435.664 339.063C434.313 340.053 433.304 341.405 432.765 342.945C432.226 344.484 432.182 346.142 432.638 347.706C432.712 348.014 432.655 348.337 432.479 348.605C432.303 348.873 432.022 349.064 431.699 349.135C431.375 349.205 431.035 349.151 430.754 348.983C430.472 348.816 430.272 348.548 430.198 348.24C429.804 345.739 428.819 343.356 427.319 341.27C425.611 340.503 423 341.851 422.17 342.269L421.951 342.432Z" fill="#222222"/>
<path d="M473.776 379.326C473.464 379.322 473.165 379.208 472.935 379.007C472.705 378.805 472.562 378.53 472.532 378.234C470.97 364.294 455.452 339.969 455.232 339.714C455.144 339.58 455.084 339.431 455.057 339.275C455.03 339.119 455.036 338.959 455.075 338.805C455.113 338.652 455.184 338.507 455.282 338.38C455.381 338.252 455.505 338.145 455.647 338.064C455.933 337.9 456.274 337.849 456.598 337.923C456.923 337.997 457.203 338.19 457.38 338.459C458.014 339.481 473.435 363.481 475.021 377.956C475.038 378.111 475.022 378.269 474.974 378.419C474.927 378.568 474.849 378.708 474.744 378.829C474.64 378.95 474.512 379.05 474.366 379.123C474.221 379.197 474.062 379.242 473.898 379.257L473.776 379.326Z" fill="#222222"/>
<path d="M456.428 382.718C456.127 382.716 455.836 382.612 455.608 382.425C455.38 382.238 455.23 381.979 455.184 381.696C452.939 366.176 442.984 342.432 442.984 342.199C442.861 341.891 442.871 341.549 443.013 341.249C443.155 340.948 443.416 340.713 443.74 340.596C444.064 340.479 444.423 340.489 444.738 340.624C445.054 340.76 445.301 341.009 445.424 341.317C445.838 342.292 455.55 365.595 457.819 381.371C457.843 381.528 457.834 381.688 457.793 381.842C457.753 381.996 457.68 382.141 457.58 382.268C457.481 382.396 457.356 382.503 457.212 382.584C457.069 382.665 456.91 382.719 456.745 382.742L456.428 382.718Z" fill="#222222"/>
<path d="M440.885 384.414C440.561 384.415 440.249 384.297 440.013 384.086C439.777 383.874 439.635 383.584 439.616 383.276C438.665 367.268 430.417 348.612 430.32 348.426C430.197 348.13 430.199 347.799 430.327 347.505C430.454 347.21 430.697 346.974 431.003 346.846C431.154 346.785 431.315 346.752 431.479 346.751C431.643 346.749 431.805 346.778 431.957 346.837C432.109 346.895 432.247 346.981 432.364 347.09C432.481 347.2 432.574 347.33 432.638 347.473C433.004 348.263 441.153 366.711 442.129 383.137C442.139 383.295 442.116 383.454 442.061 383.605C442.007 383.755 441.921 383.893 441.81 384.012C441.699 384.131 441.565 384.227 441.414 384.296C441.264 384.365 441.101 384.406 440.934 384.414H440.885Z" fill="#222222"/>
<path d="M288.702 204.286C288.461 204.289 288.224 204.224 288.02 204.1C287.816 203.977 287.655 203.799 287.555 203.589C287.486 203.445 287.448 203.288 287.442 203.129C287.436 202.97 287.464 202.811 287.523 202.662C287.582 202.513 287.671 202.377 287.785 202.261C287.9 202.145 288.037 202.052 288.19 201.986C288.336 201.986 303.928 195.016 312.029 172.364C312.135 172.056 312.366 171.801 312.671 171.655C312.821 171.582 312.986 171.539 313.154 171.527C313.322 171.515 313.491 171.535 313.651 171.585C313.811 171.636 313.96 171.716 314.087 171.821C314.215 171.925 314.32 172.053 314.396 172.197C314.472 172.34 314.517 172.497 314.53 172.657C314.542 172.817 314.522 172.978 314.469 173.13C305.977 196.828 290.069 203.891 289.263 204.193C289.086 204.265 288.894 204.296 288.702 204.286Z" fill="#222222"/>
<path d="M259.422 313.042C262.198 313.042 264.449 310.899 264.449 308.256C264.449 305.612 262.198 303.47 259.422 303.47C256.646 303.47 254.396 305.612 254.396 308.256C254.396 310.899 256.646 313.042 259.422 313.042Z" fill="#222222"/>
<path d="M256.372 352.678C259.148 352.678 261.399 350.535 261.399 347.892C261.399 345.248 259.148 343.106 256.372 343.106C253.596 343.106 251.346 345.248 251.346 347.892C251.346 350.535 253.596 352.678 256.372 352.678Z" fill="#222222"/>
</svg>
