<svg fill="none" height="592" viewBox="0 0 491 592" width="491" xmlns="http://www.w3.org/2000/svg"><path d="m376.298 501.139h-240.023v89.03h240.023z" fill="#222"/><path d="m376.298 591.331h-240.023c-.321-.006-.628-.131-.855-.347-.228-.217-.358-.509-.365-.815v-89.03c0-.308.129-.604.358-.822s.539-.34.862-.34h240.023c.324 0 .634.122.863.34s.357.514.357.822v89.03c0 .308-.128.603-.357.821s-.539.341-.863.341zm-238.803-2.324h237.583v-86.707h-237.583z" fill="#222"/><path d="m484.878 354.49c-1.098 2.579-20.008 95.559-48.8 102.924s-85.619-74.208-85.619-74.208l39.04-167.28z" fill="#7e83ff"/><path d="m32.1362 341.177c1.098 2.579 21.96 95.42 50.6788 102.761 28.719 7.342 48.995-49.347 48.995-49.347l-28.743-161.031z" fill="#7e83ff"/><path d="m46.9471 357.952c5.0155 3.433 11.1392 5.078 17.2996 4.646 3.0645-.255 6.0016-1.285 8.507-2.985 2.5055-1.699 4.4882-4.005 5.7426-6.68.6279-1.473.9191-3.057.854-4.646-.2064-2.452-1.1747-4.789-2.7816-6.715-6.5392-8.341-28.9872-20.097-39.3572-13.498-13.9324 8.945.61 23.93 9.7356 29.878z" fill="#fff"/><path d="m62.0751 363.992c-5.6904-.129-11.2082-1.885-15.8356-5.041-6.0024-3.903-16.104-12.895-16.0552-21.747.0567-2.055.6677-4.063 1.7745-5.828 1.1067-1.766 2.6719-3.231 4.5451-4.255 11.0532-6.97 34.0136 4.786 41.0652 13.777 1.7472 2.13 2.8068 4.697 3.05 7.389.0854 1.772-.2394 3.541-.9516 5.181-1.573 3.169-4.065 5.844-7.182 7.708-3.1171 1.865-6.7293 2.842-10.4104 2.816zm-14.4204-6.97c4.7397 3.356 10.5755 5.002 16.47 4.647 2.8304-.238 5.5437-1.188 7.8629-2.751 2.3191-1.563 4.1609-3.685 5.3375-6.147.5689-1.334.8351-2.767.7808-4.206-.1792-2.203-1.0269-4.31-2.44-6.063-6.222-7.946-28.0356-19.331-37.6248-13.22-1.5261.813-2.8075 1.986-3.7217 3.405-.9142 1.42-1.4306 3.039-1.4999 4.703-.1708 6.668 7.6128 14.87 14.8352 19.586z" fill="#222"/><path d="m63.8319 277.076c3.7953.331 7.4977 1.306 10.9311 2.881 3.5136 1.743 8.5645 4.508 10.3457 7.993.5175.947.7877 1.999.7877 3.066 0 1.068-.2702 2.12-.7877 3.067-.6183.892-1.4439 1.637-2.4127 2.177-.9689.54-2.0552.86-3.1749.937-2.2284.137-4.465-.091-6.6124-.674-5.2948-1.185-34.7212-7.179-24.4-17.356 3.8064-3.647 10.5652-2.625 15.3232-2.091z" fill="#fff"/><path d="m78.2034 298.451c-1.879-.053-3.7455-.31-5.5632-.767l-.6343-.139c-16.4212-3.601-25.1321-7.713-26.6449-12.592-.2856-1.211-.2083-2.474.2231-3.644.4314-1.171 1.1996-2.203 2.2169-2.978 3.9528-3.88 10.6384-3.09 15.5428-2.532h.7564c3.9434.326 7.7898 1.342 11.346 2.997 4.0748 2.021 9.0036 4.809 10.9068 8.55.6136 1.118.9341 2.362.9341 3.624s-.3205 2.506-.9341 3.624c-.7385 1.077-1.7331 1.972-2.9032 2.614s-2.4827 1.012-3.8312 1.08c-.4687.076-.941.131-1.4152.163zm-21.2768-20.724c-1.3208-.092-2.6476.066-3.904.464-1.2564.399-2.4174 1.031-3.416 1.859-.676.495-1.1939 1.159-1.4956 1.918s-.3752 1.584-.2124 2.38c.8296 2.696 5.8072 6.785 24.7904 10.943l.6344.14c2.0139.54 4.1094.752 6.1977.627.9231-.051 1.8213-.305 2.6253-.74.8039-.435 1.4918-1.04 2.0106-1.769.4213-.772.6413-1.628.6413-2.498 0-.869-.22-1.726-.6413-2.497-1.586-3.137-6.344-5.762-9.76-7.458-3.2905-1.52-6.8474-2.45-10.492-2.742h-.7808c-2.0491-.338-4.1195-.548-6.1976-.627z" fill="#222"/><path d="m213.941 160.538s-54.363 5.32-50.557 16.054 25.181 20.91 25.181 20.91-78.812 25.673-86.352 35.106c-7.5395 9.433 20.716 283.052 20.716 283.052h241.194s30.134-296.179 24.4-300.593c-5.734-4.415-84.668-24.117-84.668-24.117s14.225-21.514 8.515-26.462c-5.709-4.949-98.429-3.95-98.429-3.95z" fill="#7e83ff"/><path d="m249.418 479.206h-.171c-.165-.022-.323-.076-.467-.157-.143-.081-.268-.189-.368-.316s-.172-.272-.213-.426-.049-.314-.025-.471l37.063-232.45-73.566-44.677c-.138-.085-.258-.195-.351-.324-.094-.13-.159-.275-.194-.428-.034-.154-.035-.312-.005-.466.031-.154.094-.301.184-.432.181-.266.463-.453.787-.523.324-.069.663-.015.946.151l74.249 45.166c.207.128.37.31.469.524.1.215.132.452.092.684l-37.185 233.123c-.047.283-.197.542-.425.729s-.519.291-.82.293z" fill="#222"/><path d="m377.445 359.81c-.167-.009-.33-.049-.48-.118-.151-.069-.285-.166-.396-.284-.111-.119-.197-.257-.251-.408-.055-.15-.078-.309-.068-.467 0-.953 5.319-95.257 7.881-115.075.042-.313.212-.597.472-.792.26-.196.589-.287.919-.254.165.014.325.061.471.136s.274.178.377.302c.103.123.178.266.221.419.043.152.052.311.029.468-2.562 19.841-7.808 113.982-7.857 114.935-.025.314-.176.607-.421.819s-.566.326-.897.319z" fill="#222"/><path d="m330.109 58.7064c0 24.7667-38.942 32.8054-87.01 32.8054s-86.986-7.969-86.986-32.7357c0-24.7668 39.04-56.94492 86.986-56.94492s87.01 32.10842 87.01 56.87522z" fill="#fff"/><path d="m243.099 92.6503c-58.56 0-88.231-11.4076-88.231-33.9439 0-26.1608 40.7-58.083372 88.231-58.083372 22.398-.019486 44.212 6.795872 62.244 19.446272 16.275 11.6167 25.986 25.9749 25.986 38.7068.049 22.4666-29.67 33.8742-88.23 33.8742zm0-89.68071c-49.727 0-85.717 33.29341-85.717 55.76001 0 26.0678 46.604 31.5509 85.717 31.5509s85.717-5.4831 85.717-31.5509c.049-22.4666-35.941-55.76001-85.717-55.76001z" fill="#222"/><path d="m279.503 113.56c2.587-17.3783 32.721-22.1876 31.72-1.742-.094 7.103-2.816 13.948-7.686 19.33-5.075 5.111-13.371 7.644-20.178 4.879" fill="#fff"/><path d="m289.263 138.35c-2.226.013-4.433-.398-6.49-1.208-.275-.135-.49-.359-.606-.631-.117-.273-.127-.577-.028-.856.064-.143.157-.274.273-.383.117-.109.255-.195.407-.254.152-.058.315-.087.478-.085.164.001.326.034.476.095 3.262 1.094 6.793 1.236 10.14.408s6.358-2.588 8.648-5.055c4.659-5.183 7.251-11.764 7.32-18.586.537-10.084-6.661-11.8263-9.76-12.1051-8.052-.7434-17.958 4.8561-19.324 13.9401-.083.274-.267.51-.519.666-.251.155-.553.218-.849.179-.297-.04-.569-.18-.766-.395s-.305-.49-.306-.775c1.561-10.548 12.834-16.9839 21.96-16.1242 6.173.5576 12.59 4.6462 12.053 14.6142-.105 7.386-2.938 14.501-8.003 20.096-1.932 1.989-4.265 3.585-6.861 4.695-2.595 1.11-5.398 1.71-8.243 1.764z" fill="#222"/><path d="m208.011 113.049c-3.245-17.2855-33.55-20.9099-31.72-.604.372 7.087 3.352 13.824 8.419 19.028 5.27 4.926 13.664 7.156 20.349 4.159" fill="#fff"/><path d="m198.544 138.188c-5.492-.07-10.742-2.17-14.64-5.855-5.282-5.411-8.4-12.417-8.808-19.795-.927-9.874 5.344-14.242 11.492-15.032 9.126-1.1616 20.692 4.856 22.668 15.334.045.159.056.324.03.487s-.086.318-.179.457c-.092.139-.213.258-.357.35-.143.092-.304.154-.474.184-.17.029-.344.024-.512-.015-.168-.038-.326-.11-.463-.209-.137-.1-.251-.226-.335-.369-.083-.144-.134-.303-.15-.467-1.732-9.154-11.858-14.3812-19.886-13.3589-3.099.3949-10.224 2.3229-9.296 12.4299.346 6.813 3.196 13.293 8.052 18.308 2.387 2.374 5.464 4.015 8.837 4.715 3.373.699 6.889.425 10.097-.789.149-.067.31-.105.475-.113s.329.015.485.068c.155.053.297.135.42.24.122.105.221.233.291.374.071.142.111.296.119.453.009.157-.016.313-.071.461-.056.148-.141.284-.252.4s-.244.211-.393.278c-2.238.991-4.682 1.491-7.15 1.464z" fill="#222"/><path d="m212.355 199.617s26.62 10.385 33.379 10.385c17.422 0 32.184-11.617 32.184-11.617l-1.245-12.104-2.903-28.113-2.709-26.23-58.706-2.463 2.855 24.999-.415 6.97z" fill="#fff"/><path d="m245.734 211.21c-6.93 0-32.745-10.037-33.843-10.478-.247-.09-.458-.255-.598-.468-.141-.214-.205-.466-.183-.717l2.831-45.143-2.831-24.813c-.029-.16-.02-.325.027-.482.046-.157.129-.301.242-.424.121-.125.268-.224.432-.292s.341-.103.519-.103l58.707 2.486c.303.005.593.117.814.315.221.197.357.466.381.754l6.954 66.54c.013.197-.022.393-.103.575-.08.181-.204.342-.36.471-.61.441-15.323 11.779-32.989 11.779zm-32.062-12.36c9.37 3.624 27.06 9.967 32.062 9.967 14.982 0 28.133-8.922 30.866-10.897l-6.661-64.821-56.12-2.323 2.635 23.466-.39 7.202z" fill="#222"/><path d="m214.795 161.467c4.7 6.225 10.945 11.245 18.178 14.614 11.834 5.971 29.524 12.593 43.7 10.269l-2.903-28.112c-10.393 1.418-20.925 1.668-31.379.743-9.199-.604-18.69-1.301-27.181-4.507z" fill="#222"/><path d="m270.5 188c-14.152 0-29.524-6.575-38.089-10.897-7.424-3.434-13.819-8.596-18.592-15.008-.138-.208-.207-.451-.196-.697l.415-6.97c.012-.183.069-.36.167-.517.097-.158.233-.291.394-.389.17-.086.358-.131.549-.131.192 0 .38.045.549.131 8.565 3.229 18.276 3.88 26.84 4.414 10.372.941 20.825.691 31.135-.744.329-.041.662.043.927.233.134.096.245.218.325.358.08.141.127.296.139.455l2.879 28.136c.035.288-.05.579-.237.809s-.461.381-.764.422c-2.13.311-4.286.443-6.441.395zm-54.461-26.788c4.545 5.95 10.563 10.738 17.519 13.94 9.37 4.647 27.06 12.221 41.797 10.315l-2.659-25.812c-10.079 1.277-20.278 1.472-30.403.581-8.836-.231-17.597-1.622-26.034-4.135z" fill="#222"/><path d="m199.179 65.9551 1.195 60.4069c.212 10.535 4.808 20.56 12.778 27.87s18.663 11.308 29.727 11.115h4.88c5.48-.096 10.886-1.22 15.909-3.307 5.023-2.086 9.566-5.094 13.368-8.853 3.802-3.758 6.789-8.193 8.791-13.051s2.979-10.044 2.875-15.261l-1.171-58.9199z" fill="#fff"/><path d="m242.098 166.625c-11.264-.029-22.068-4.261-30.092-11.788-8.024-7.528-12.629-17.751-12.827-28.475l-1.245-60.4068c-.003-.1595.028-.318.09-.466.063-.1481.156-.2825.275-.3953.118-.1128.259-.2017.415-.2613.155-.0596.322-.0887.489-.0855h88.328c.164-.0031.326.0245.478.0812s.291.1414.409.2493.212.2368.278.3794c.065.1426.101.2961.104.4517l1.147 58.9663c.116 5.382-.882 10.734-2.938 15.749s-5.13 9.595-9.045 13.478c-3.916 3.884-8.596 6.995-13.775 9.155-5.178 2.161-10.753 3.329-16.405 3.438h-4.88zm-41.626-99.5314 1.147 59.2684c.199 10.225 4.654 19.956 12.387 27.054 7.733 7.097 18.11 10.98 28.849 10.793h4.88c10.728-.208 20.931-4.458 28.373-11.818 7.442-7.361 11.515-17.231 11.326-27.446l-1.123-57.7817z" fill="#222"/><path d="m221.607 112.275c1.589-.028 2.821-2.994 2.749-6.625-.071-3.63-1.417-6.5506-3.007-6.5224-1.59.0283-2.821 2.9944-2.75 6.6254.071 3.63 1.418 6.551 3.008 6.522z" fill="#222"/><path d="m264.543 112.279c1.59-.028 2.821-2.994 2.75-6.625s-1.418-6.5511-3.008-6.5228-2.821 2.9948-2.75 6.6248c.072 3.631 1.418 6.551 3.008 6.523z" fill="#222"/><path d="m283.603 65.9551c.634 9.6883 2.001 35.1059-.293 51.1129-3.221 22.235-8.491 24.512-8.491 24.512s-3.685-9.642-29.866-9.712c-30.353 0-36.868 9.828-36.868 9.828-7.515-15.474-5.954-61.9635-5.295-75.8106h-10.687c-.439 15.729-3.123 68.0276 2.171 84.6856 6.125 19.284 17.08 30.412 55.51 30.645 27.426.162 36.039-12.872 40.944-37.964 4.752-25.507 5.844-51.51 3.245-77.2969z" fill="#b3b3b3"/><path d="m250.223 182.377h-.512c-39.04-.255-50.41-11.616-56.681-31.481-4.685-14.776-3.197-57.2467-2.44-77.6688 0-2.9274.195-5.4134.244-7.365.012-.3.147-.5836.374-.7915s.531-.3239.846-.3237h10.687c.164-.0037.327.0255.478.0855s.288.1496.4.263c.258.2217.416.5298.44.8596-.635 13.336-2.099 56.9219 4.465 73.6029 3.196-2.904 12.639-8.852 36.112-8.852h.366c20.935 0 28.011 6.204 30.158 9.061 1.513-1.765 4.88-7.295 7.076-23.024s.952-40.7511.269-50.7879c-.011-.1581.014-.3166.073-.4648.059-.1483.15-.2828.268-.3948.113-.1134.249-.203.401-.263.151-.06.314-.0892.478-.0855h10.37c.295.0036.579.1092.799.2972.22.1881.361.4457.396.7251 2.603 25.931 1.462 52.0797-3.391 77.7157-4.88 24.697-13.25 38.892-41.676 38.892zm-57.022-115.3299c0 1.7658-.122 3.88-.22 6.273-.708 20.2827-2.196 62.4979 2.44 76.9019 7.906 24.86 25.205 29.646 54.388 29.832h.512c26.84 0 34.526-13.034 39.211-37.011 4.728-25.07 5.877-50.6329 3.416-75.9959h-7.979c.683 10.8035 1.83 34.6869-.366 49.9979-3.245 22.42-8.662 25.325-9.272 25.557-.154.063-.32.095-.488.095s-.334-.032-.488-.095c-.156-.059-.295-.149-.409-.266s-.2-.256-.25-.408c0 0-3.977-8.875-28.743-8.945h-.366c-28.792 0-35.404 9.294-35.478 9.294-.115.173-.279.312-.473.402-.194.091-.41.128-.625.109-.216-.012-.424-.079-.604-.193-.181-.115-.325-.272-.42-.458-7.32-15.287-6.149-59.8953-5.466-75.1364z" fill="#222"/><path d="m245.148 108.286s9.59 28.717 3.563 29.53-13.762-8.457-13.762-8.457" fill="#fff"/><path d="m247.979 139.07c-6.466 0-13.664-8.596-13.981-8.968-.104-.121-.181-.261-.227-.412-.046-.15-.06-.307-.042-.463.018-.155.069-.306.148-.443.08-.137.187-.257.316-.354.262-.2.597-.293.931-.258s.639.194.85.443c2.001 2.324 8.174 8.62 12.566 8.016 0 0 .195 0 .366-.279 2.098-3.16-1.928-18.586-4.88-27.717-.101-.302-.072-.63.078-.912.151-.283.412-.497.727-.598.321-.089.664-.056.96.091.295.147.52.398.626.699 1.367 4.089 7.979 24.673 4.661 29.715-.222.367-.528.681-.896.918-.368.238-.787.393-1.227.453z" fill="#222"/><path d="m244.734 158.889c-8.493-.117-16.842-2.097-24.4-5.786-.256-.173-.435-.43-.503-.722s-.02-.597.135-.857c.154-.26.405-.456.703-.551.297-.094.621-.08.909.039.244 0 23.156 12.268 42.968 0 .138-.085.292-.144.454-.172.161-.029.328-.027.488.005.161.032.314.095.449.183.136.089.252.202.342.333.089.131.151.278.181.432.031.154.029.312-.005.465s-.1.298-.193.427c-.093.13-.211.24-.349.325-6.307 3.884-13.669 5.927-21.179 5.879z" fill="#222"/><path d="m181.586 45.7189s17.227-8.9913 64.148-8.9913 58.975 8.9913 58.975 8.9913l-9.37 31.8529h-104.383z" fill="#7e83ff"/><path d="m295.339 78.7102h-104.383c-.264 0-.521-.0815-.732-.2323s-.365-.3628-.439-.6041l-9.37-31.8529c-.072-.2513-.054-.5185.052-.7587s.294-.4394.534-.5656c.707-.3717 18.031-9.1074 64.733-9.1074s59.219 8.8286 59.707 9.2933c.189.144.33.3364.408.5546s.089.453.031.6768l-9.37 31.8529c-.09.2239-.251.4156-.461.5488-.21.1331-.458.2011-.71.1946zm-103.456-2.3233h102.48l8.882-30.2033c-3.075-1.7193-17.593-8.3408-57.56-8.3408s-58.682 6.7377-62.708 8.4337z" fill="#222"/><path d="m190.956 77.5718s25.766 18.4008 54.778 17.0533c17.905-1.0614 35.117-6.9787 49.605-17.0533z" fill="#222"/><path d="m242.708 95.8333c-27.864 0-52.24-17.1695-52.484-17.3553-.204-.1479-.354-.3532-.428-.5868-.075-.2335-.07-.4834.013-.7143.084-.227.239-.4242.444-.5653.205-.1412.45-.2195.703-.2246h104.383c.253.0051.498.0834.703.2246.205.1411.36.3383.444.5653.08.2254.086.4689.016.6974-.07.2286-.212.4312-.406.5804-14.713 10.1871-32.16 16.1893-50.313 17.3089-1.025.0464-2.05.0697-3.075.0697zm-47.799-17.123c7.759 4.6467 28.377 15.7522 50.776 14.7299 16.37-1.0201 32.175-6.098 45.848-14.7299z" fill="#222"/><path d="m256.031 57.1497c-2.343-1.1353-4.238-2.9608-5.404-5.2048-1.165-2.2439-1.537-4.7862-1.062-7.2482h-14.64c.475 2.462.102 5.0043-1.063 7.2482-1.165 2.244-3.06 4.0695-5.403 5.2048 0 0 1.757 15.0088 13.786 15.0088s13.786-15.0088 13.786-15.0088z" fill="#f7f7f7"/><path d="m243.953 32.9638c-.324 0-.634-.1224-.863-.3402-.229-.2179-.357-.5133-.357-.8214v-23.76773c0-.30809.128-.60357.357-.82142.229-.21786.539-.34025.863-.34025.323 0 .634.12239.862.34025.229.21785.358.51333.358.82142v23.76773c0 .3081-.129.6035-.358.8214-.228.2178-.539.3402-.862.3402z" fill="#b3b3b3"/><path d="m304.709 73.3201c-.268-.0014-.527-.0863-.738-.2416-.212-.1553-.364-.3724-.434-.618-.044-.1449-.058-.2968-.04-.4469.017-.15.066-.2952.144-.4271.077-.1319.181-.2479.305-.3411.125-.0933.268-.162.421-.2021 6.156-1.9205 11.801-5.0914 16.543-9.2934.114-.1089.249-.1953.397-.2542.149-.059.308-.0894.469-.0894s.321.0304.47.0894c.148.0589.283.1453.397.2542.114.108.205.2365.267.3781.062.1415.093.2934.093.4467 0 .1534-.031.3052-.093.4468-.062.1415-.153.27-.267.378-5.004 4.498-10.997 7.8789-17.544 9.8974z" fill="#b3b3b3"/><path d="m181.294 73.3201h-.342c-6.544-2.0248-12.535-5.4049-17.544-9.8974-.236-.2125-.374-.5058-.383-.8151-.009-.3094.111-.6095.335-.8344.223-.2249.531-.3562.856-.3649s.64.1058.876.3184c4.74 4.1938 10.374 7.3638 16.519 9.2933.323.0401.617.2009.816.4471.199.2461.287.5575.245.8656s-.211.5877-.469.7772c-.259.1895-.586.2735-.909.2335z" fill="#b3b3b3"/><path d="m212.355 199.616 36.063 22.002 29.5-23.233s-34.697 16.565-65.563 1.231z" fill="#222"/><path d="m248.418 222.734c-.233-.008-.46-.072-.659-.186l-36.063-21.84c-.244-.169-.414-.418-.476-.699-.063-.282-.013-.575.139-.824.151-.249.395-.435.682-.522.288-.088.6-.071.875.047 29.939 14.87 64.123-.999 64.465-1.161.265-.132.572-.165.861-.092s.539.247.7.487c.16.241.223.528.178.81-.045.281-.194.538-.422.723l-29.499 23.094c-.233.138-.509.195-.781.163zm-24.839-17.727 24.863 15.125 22.79-17.82c-10.102 3.275-28.817 7.69-47.653 2.695z" fill="#222"/><path d="m131.81 468.031c-.32.001-.629-.113-.864-.32s-.38-.491-.404-.795c-6.759-82.687-8.467-205.174-8.467-206.405-.004-.155.025-.31.085-.455s.149-.277.262-.39c.113-.112.249-.202.398-.264.15-.062.311-.096.475-.099.33.006.646.132.882.352s.374.518.387.833c0 1.231 1.708 123.624 8.466 206.242.014.156-.005.313-.056.461-.05.149-.131.286-.238.405s-.237.217-.383.287c-.146.071-.306.113-.469.125z" fill="#222"/><path d="m204.913 284.348c0 13.615 3.538 35.966 10.053 60.709 4.121 16.041 9.446 31.779 15.933 47.094l18.593-4.437c-1.888-16.457-5.019-32.763-9.37-48.79-6.515-24.767-14.469-46.049-21.179-58.084z" fill="#fff"/><path d="m230.899 393.359c-.247-.001-.488-.073-.693-.205-.204-.133-.362-.32-.454-.538-6.499-15.398-11.824-31.222-15.933-47.35-6.296-23.953-10.078-46.768-10.102-61.01-.002-.268.09-.528.263-.739s.416-.36.689-.423l13.956-3.346c.273-.062.56-.037.816.072.256.11.467.297.6.532 7.027 12.57 15.006 34.386 21.301 58.339 4.354 16.077 7.501 32.428 9.418 48.93.022.285-.061.568-.235.801-.173.233-.427.402-.716.476l-18.593 4.415zm-24.644-108.174c.17 14.126 3.879 36.244 10.004 59.477 4.003 15.679 9.148 31.073 15.396 46.072l16.324-3.926c-1.939-16.028-5.029-31.911-9.248-47.536-6.124-23.233-13.786-44.445-20.618-56.968z" fill="#222"/><path d="m210.281 248.151c-1.855-7.76-2.44-73.905-25.449-68.422-23.01 5.483 9.223 64.101 11.443 71.768z" fill="#fff"/><path d="m196.275 252.705c-.278.003-.548-.082-.77-.242-.221-.16-.379-.385-.45-.641-.39-1.324-1.83-4.507-3.635-8.504-7.32-16.263-20.936-46.304-14.299-59.128.702-1.398 1.724-2.629 2.991-3.601 1.267-.973 2.746-1.664 4.329-2.022 1.579-.417 3.238-.485 4.849-.2 1.611.286 3.132.919 4.448 1.85 12.2 8.317 15.128 40.983 16.665 58.548.39 4.344.707 7.783 1.025 9.13.073.305.016.625-.157.891-.174.265-.451.455-.771.527l-14.005 3.345zm-8.808-72.024c-.823-.003-1.642.09-2.44.279-1.244.26-2.408.79-3.402 1.547-.995.758-1.793 1.723-2.332 2.821-6.149 11.826 7.686 42.401 14.347 57.108 1.537 3.368 2.708 6.017 3.367 7.69l11.932-2.951c-.269-1.766-.513-4.646-.83-8.294-1.415-15.961-4.367-49.139-15.64-56.806-1.453-.998-3.211-1.512-5.002-1.463z" fill="#222"/><path d="m210.76 241.965-19.409 4.629c-1.948.464-3.131 2.344-2.644 4.199l1.257 4.778c.488 1.854 2.462 2.981 4.41 2.517l19.409-4.629c1.947-.464 3.131-2.344 2.643-4.199l-1.257-4.778c-.487-1.854-2.462-2.981-4.409-2.517z" fill="#fff"/><path d="m193.518 259.373c-1.115.031-2.207-.303-3.095-.946-.888-.642-1.518-1.555-1.785-2.586l-1.244-4.786c-.161-.593-.197-1.211-.107-1.818.091-.607.308-1.191.636-1.718.329-.526.764-.986 1.281-1.352.516-.366 1.103-.632 1.728-.781l19.52-4.646c.623-.15 1.271-.181 1.907-.091.635.09 1.246.298 1.797.614.551.315 1.031.73 1.413 1.223.382.492.658 1.051.812 1.646l1.244 4.786c.157.592.191 1.207.098 1.811s-.31 1.185-.638 1.71c-.329.524-.763.981-1.277 1.346s-1.099.629-1.721.778l-19.52 4.647c-.342.09-.694.145-1.049.163zm18.129-16.264h-.561l-19.52 4.647c-.3.069-.582.196-.829.371-.248.176-.455.397-.611.651-.168.249-.279.528-.325.821-.046.292-.027.591.057.875l1.244 4.81c.172.569.566 1.055 1.101 1.357s1.171.399 1.779.269l19.52-4.647c.299-.069.581-.195.829-.371.247-.176.455-.397.61-.651.169-.253.28-.536.326-.832.046-.297.027-.599-.057-.887l-1.245-4.786c-.138-.488-.438-.919-.857-1.229-.418-.311-.931-.483-1.461-.491z" fill="#222"/><path d="m272.769 542.239c-6.734-12.035-14.64-33.317-21.204-58.084-4.35-16.028-7.481-32.333-9.369-48.79l18.593-4.437c6.463 15.348 11.763 31.117 15.86 47.187 6.514 24.766 10.052 47.093 10.052 60.731z" fill="#fff"/><path d="m272.769 543.354c-.231-.003-.457-.065-.654-.18-.198-.114-.359-.277-.468-.471-7.028-12.569-15.006-34.362-21.302-58.339-4.361-16.097-7.5-32.472-9.394-48.999-.033-.283.043-.569.213-.804.171-.234.424-.403.715-.474l18.592-4.437c.292-.067.598-.034.866.093.268.128.48.342.598.604 6.503 15.405 11.828 31.237 15.934 47.373 6.319 23.953 10.077 46.768 10.101 61.01-.002.267-.096.525-.268.735s-.412.36-.683.427l-13.957 3.322zm-29.28-107.106c1.961 16.033 5.092 31.916 9.37 47.535 6.124 23.234 13.786 44.446 20.618 56.969l12.053-2.881c-.195-14.103-3.904-36.221-10.028-59.478-4.004-15.678-9.148-31.073-15.397-46.071z" fill="#222"/><path d="m303.464 590.169c-3.879-9.015-7.32-16.263-8.1-18.587l-14.006 3.346c.464 1.998.854 7.806 1.562 15.264z" fill="#fff"/><path d="m303.464 591.377h-20.545c-.312-.004-.611-.118-.841-.32-.229-.201-.373-.476-.403-.772-.195-2.137-.366-4.112-.537-5.924-.39-4.392-.707-7.853-1.025-9.294-.066-.304-.007-.621.166-.885.172-.264.445-.455.762-.532l14.005-3.346c.323-.071.663-.022.949.138s.497.418.588.722c.366 1.324 1.806 4.507 3.636 8.527 1.293 2.881 2.83 6.249 4.416 9.92.071.187.096.386.075.583s-.088.387-.197.556c-.107.178-.259.329-.442.438-.183.11-.391.174-.607.189zm-19.373-2.323h17.568c-1.318-3.021-2.587-5.809-3.685-8.225-1.537-3.392-2.733-6.041-3.367-7.737l-11.736 2.788c.268 1.789.512 4.647.854 8.388.048 1.394.195 2.997.366 4.693z" fill="#222"/><path d="m295.823 565.37-19.408 4.628c-1.948.465-3.131 2.345-2.644 4.2l1.257 4.777c.488 1.855 2.462 2.982 4.41 2.517l19.409-4.628c1.947-.464 3.131-2.344 2.643-4.199l-1.257-4.778c-.487-1.854-2.462-2.981-4.41-2.517z" fill="#fff"/><path d="m278.601 582.757c-1.112.033-2.201-.298-3.089-.936-.887-.638-1.519-1.545-1.791-2.572l-1.245-4.809c-.157-.592-.19-1.208-.098-1.812.093-.604.31-1.185.639-1.709.328-.524.762-.982 1.276-1.347.515-.364 1.1-.629 1.721-.778l19.52-4.647c.624-.149 1.272-.18 1.907-.09.636.09 1.247.298 1.798.614.551.315 1.031.73 1.413 1.223.382.492.657 1.051.812 1.646l1.268 4.786c.157.593.19 1.21.095 1.816-.094.605-.313 1.187-.644 1.711-.331.525-.768.982-1.285 1.345-.517.364-1.104.627-1.728.773l-19.52 4.647c-.343.083-.695.129-1.049.139zm18.153-16.263h-.585l-19.52 4.647c-.603.16-1.119.534-1.44 1.045-.168.249-.279.528-.325.821-.046.292-.027.591.057.875l1.244 4.81c.172.569.565 1.055 1.101 1.357.535.302 1.171.399 1.778.269l19.52-4.647c.608-.149 1.133-.515 1.464-1.022.32-.518.416-1.135.269-1.719l-1.269-4.786c-.135-.48-.429-.906-.837-1.216-.409-.309-.911-.486-1.432-.504z" fill="#222"/><path d="m311.419 294.501c-10.102 9.642-24.181 27.88-37.967 49.697-9.039 14.151-16.997 28.904-23.814 44.143l16.421 9.293c10.88-12.893 20.763-26.52 29.573-40.774 13.786-21.886 23.961-42.285 28.133-55.319z" fill="#fff"/><path d="m265.961 398.842c-.221-.007-.438-.062-.634-.162l-16.446-9.294c-.26-.146-.456-.377-.55-.651s-.081-.571.038-.836c6.844-15.243 14.835-29.996 23.912-44.143 13.323-21.189 27.597-39.845 38.162-49.928.196-.192.455-.315.734-.349s.562.024.803.163l12.346 6.97c.238.138.42.348.517.597.098.248.105.521.02.774-4.343 13.614-14.908 34.408-28.255 55.597-8.843 14.3-18.759 27.974-29.671 40.914-.128.119-.281.212-.449.272s-.347.086-.527.076zm-14.859-11.082 14.64 8.318c10.516-12.594 20.112-25.86 28.719-39.706 12.932-20.585 23.253-40.705 27.718-54.18l-10.638-6.227c-10.37 10.107-24.156 28.252-37.113 48.79-8.807 13.806-16.601 28.175-23.326 43.005z" fill="#222"/><path d="m341.919 272.592c4.465-6.737 53.143-53.924 32.818-65.518-20.326-11.593-41.066 51.532-45.189 58.455z" fill="#fff"/><path d="m341.919 273.801c-.226-.005-.445-.07-.635-.186l-12.395-6.97c-.141-.079-.265-.184-.363-.309-.099-.125-.171-.266-.211-.418-.041-.151-.05-.308-.027-.462.023-.155.078-.303.162-.438.707-1.185 2.049-4.391 3.733-8.457 6.856-16.263 19.52-46.838 33.818-51.415 1.543-.471 3.173-.622 4.782-.444 1.609.179 3.159.684 4.546 1.481s2.579 1.867 3.495 3.139 1.536 2.716 1.817 4.235c2.44 14.125-19.739 39.171-31.72 52.623-2.952 3.346-5.294 5.994-6.051 7.133-.111.143-.254.261-.418.345-.165.084-.347.133-.533.143zm-10.736-8.736 10.394 5.924c1.122-1.44 3.05-3.624 5.563-6.435 10.834-12.221 33.404-37.685 31.135-50.695-.188-1.2-.661-2.344-1.384-3.342-.724-.999-1.678-1.827-2.789-2.42-1.074-.659-2.295-1.072-3.565-1.205s-2.556.017-3.755.438c-13.127 4.228-26.059 35.152-32.281 50.021-1.391 3.439-2.513 6.088-3.318 7.714z" fill="#222"/><path d="m346.881 268.557-17.161-9.795c-1.722-.983-3.955-.45-4.987 1.189l-2.66 4.225c-1.032 1.64-.473 3.766 1.249 4.749l17.161 9.795c1.722.983 3.955.451 4.988-1.189l2.659-4.225c1.032-1.64.473-3.766-1.249-4.749z" fill="#fff"/><path d="m342.358 280.376c-.859-.009-1.701-.233-2.44-.651l-17.08-9.804c-1.109-.635-1.907-1.663-2.221-2.858-.159-.593-.193-1.211-.101-1.817s.309-1.189.638-1.715l2.684-4.228c.329-.526.764-.985 1.28-1.35.515-.366 1.102-.63 1.725-.779.624-.149 1.272-.18 1.908-.089.636.09 1.247.299 1.797.615l17.08 9.804c.553.314 1.034.728 1.418 1.219s.662 1.049.818 1.643c.157.593.189 1.211.094 1.816s-.315 1.187-.646 1.711l-2.66 4.229c-.443.703-1.074 1.282-1.828 1.678-.754.395-1.605.594-2.466.576zm-14.469-20.91c-.411.003-.814.104-1.172.295s-.66.465-.878.797l-2.66 4.228c-.319.518-.415 1.135-.268 1.719.156.579.541 1.078 1.074 1.394l17.08 9.782c.541.289 1.179.371 1.782.229.603-.143 1.126-.499 1.463-.996l2.659-4.229c.312-.518.402-1.13.252-1.71-.15-.579-.528-1.082-1.057-1.403l-17.08-9.781c-.356-.221-.77-.341-1.195-.349z" fill="#222"/><path d="m167.8 522.537c4.173-13.034 14.347-33.433 28.133-55.319 8.811-14.248 18.686-27.874 29.549-40.774l16.446 9.293c-6.817 15.239-14.776 29.991-23.815 44.143-13.786 21.886-27.889 40.055-37.991 49.696z" fill="#fff"/><path d="m180.122 530.784c-.222-.006-.439-.062-.634-.162l-12.347-6.97c-.242-.135-.429-.344-.531-.593-.101-.248-.112-.523-.03-.778 4.368-13.615 14.933-34.385 28.255-55.574 8.86-14.303 18.784-27.984 29.695-40.937.191-.22.459-.368.755-.415s.6.01.856.159l16.445 9.294c.259.142.454.369.549.639.094.269.081.563-.036.824-6.844 15.244-14.835 29.997-23.912 44.144-13.347 21.188-27.597 39.868-38.162 49.951-.112.126-.25.228-.405.3-.156.072-.325.112-.498.118zm-10.833-8.782 10.638 6.064c10.346-10.083 24.156-28.228 37.088-48.79 8.817-13.78 16.619-28.127 23.351-42.935l-14.64-8.318c-10.535 12.638-20.132 25.959-28.719 39.869-12.956 20.515-23.253 40.658-27.718 54.11z" fill="#222"/><path d="m147.768 590.169c7.051-13.94 12.2-28.484 14.152-31.597l-12.371-6.97c-2.635 3.996-20.74 22.141-30.89 38.683z" fill="#fff"/><path d="m147.768 591.377h-29.109c-.223.002-.443-.052-.636-.159-.193-.106-.353-.26-.462-.445-.109-.184-.166-.392-.166-.604s.057-.42.166-.604c7.374-11.144 15.68-21.703 24.839-31.574 2.977-3.346 5.295-5.971 6.076-7.133.176-.263.452-.451.77-.525.319-.073.654-.027.938.13l12.395 6.97c.28.164.483.425.565.729.082.303.037.625-.126.897-.708 1.185-2.05 4.392-3.758 8.457-2.586 6.227-6.148 14.73-10.37 23.071-.088.22-.24.412-.439.552s-.436.222-.683.238zm-26.84-2.323h26.035c4.026-8.039 7.442-16.264 9.955-22.235 1.44-3.415 2.44-6.087 3.343-7.713l-10.37-5.925c-1.123 1.441-3.075 3.648-5.563 6.459-8.552 9.22-16.389 19.019-23.449 29.321z" fill="#222"/><path d="m166.874 554.486-17.161-9.795c-1.722-.983-3.955-.451-4.988 1.189l-2.659 4.225c-1.032 1.64-.473 3.766 1.249 4.749l17.161 9.795c1.722.983 3.955.45 4.987-1.189l2.66-4.225c1.032-1.64.473-3.766-1.249-4.749z" fill="#fff"/><path d="m162.359 566.355c-.863-.005-1.708-.239-2.44-.674l-17.08-9.781c-1.109-.635-1.907-1.663-2.22-2.858-.16-.593-.194-1.211-.102-1.817s.309-1.189.638-1.714l2.684-4.229c.665-1.056 1.742-1.817 2.995-2.118s2.581-.115 3.691.515l17.08 9.781c1.109.635 1.907 1.663 2.22 2.858.16.593.194 1.211.102 1.817s-.309 1.188-.638 1.714l-2.684 4.252c-.439.696-1.063 1.271-1.807 1.666-.745.395-1.586.598-2.439.588zm-14.469-20.91h-.586c-.612.154-1.137.529-1.464 1.045l-2.659 4.229c-.32.518-.416 1.134-.269 1.719.073.285.206.554.39.79.185.235.417.433.684.581l17.08 9.804c.542.29 1.179.372 1.782.229.603-.142 1.126-.498 1.463-.996l2.66-4.251c.319-.519.416-1.135.268-1.72-.073-.285-.205-.554-.39-.789-.184-.236-.417-.433-.684-.581l-17.08-9.805c-.35-.189-.744-.293-1.146-.302z" fill="#222"/><path d="m378.982 373.402c-14.323 0-37.771 3.369-63.781 9.572-16.883 3.927-33.445 9.013-49.557 15.218l4.661 17.704c17.281-1.821 34.404-4.81 51.24-8.945 25.986-6.204 48.336-13.754 61-20.167z" fill="#fff"/><path d="m270.305 416.988c-.281.002-.555-.086-.776-.251-.222-.165-.378-.396-.444-.656l-4.661-17.703c-.07-.278-.035-.57.099-.825s.358-.457.633-.569c16.186-6.142 32.812-11.173 49.752-15.056 25.156-5.994 49.117-9.595 64.05-9.618.282.007.554.101.774.269s.377.4.446.66l3.489 13.266c.07.26.045.535-.07.78s-.314.445-.564.568c-13.201 6.714-36.088 14.288-61.269 20.283-16.873 4.155-34.038 7.152-51.362 8.968zm-3.172-18.192 4.123 15.706c16.835-1.831 33.516-4.773 49.923-8.806 24.4-5.831 46.677-13.127 59.828-19.632l-3.025-11.454c-14.811.163-38.04 3.717-62.464 9.526-16.463 3.822-32.63 8.721-48.385 14.66z" fill="#222"/><path d="m416.875 378.513c8.15-1.766 77.617-2.323 71.858-24.232-5.758-21.909-67.295 8.782-75.371 10.896z" fill="#fff"/><path d="m416.876 379.605c-.281.002-.555-.086-.776-.25-.222-.165-.378-.396-.444-.656l-3.514-13.336c-.04-.151-.049-.308-.025-.462.023-.154.079-.303.163-.436.083-.134.194-.251.325-.344.132-.093.281-.16.44-.198 1.366-.372 4.709-1.72 8.93-3.462 17.08-6.97 48.605-19.934 62.074-13.592 1.459.698 2.744 1.688 3.765 2.902 1.02 1.214 1.754 2.624 2.15 4.133.396 1.508.446 3.081.145 4.61-.301 1.528-.945 2.977-1.888 4.247-8.735 11.617-43.041 14.381-61.488 15.868-4.563.372-8.174.651-9.589.953zm-2.001-13.731 2.928 11.175c1.879-.255 4.88-.511 8.711-.813 16.762-1.347 51.606-4.135 59.658-14.869.732-.988 1.231-2.115 1.465-3.304.233-1.188.194-2.411-.114-3.584s-.878-2.269-1.671-3.214c-.794-.944-1.791-1.714-2.926-2.258-12.419-5.855-44.53 7.318-59.975 13.661-3.538 1.557-6.319 2.695-8.076 3.299z" fill="#222"/><path d="m423.361 378.962-4.86-18.481c-.488-1.855-2.463-2.981-4.41-2.517l-5.018 1.197c-1.948.464-3.131 2.344-2.644 4.199l4.861 18.48c.488 1.855 2.462 2.982 4.41 2.517l5.018-1.196c1.948-.465 3.131-2.345 2.643-4.199z" fill="#fff"/><path d="m414.85 385.692c-1.089-.001-2.148-.349-3.006-.989-.857-.64-1.466-1.535-1.727-2.542l-4.88-18.471c-.161-.595-.196-1.214-.103-1.822.092-.608.31-1.193.642-1.72.331-.527.769-.987 1.288-1.352s1.109-.628 1.735-.775l5.027-1.185c.621-.149 1.268-.181 1.902-.093.635.088 1.245.295 1.795.608.551.313 1.031.726 1.414 1.216.383.489.661 1.046.818 1.638l4.88 18.587c.157.593.189 1.211.095 1.816-.095.605-.313 1.187-.644 1.712-.332.524-.768.981-1.285 1.345-.517.363-1.105.626-1.729.773l-5.026 1.208c-.395.062-.797.078-1.196.046zm-2.293-4.112c.166.574.558 1.065 1.094 1.372.535.307 1.174.406 1.785.278l5.026-1.209c.603-.158 1.119-.531 1.441-1.041.323-.51.427-1.119.292-1.7l-4.88-18.587c-.168-.574-.561-1.065-1.098-1.371-.264-.154-.557-.257-.863-.301-.307-.044-.619-.028-.918.046l-5.027 1.185c-.603.158-1.118.531-1.441 1.041-.322.51-.426 1.119-.291 1.7z" fill="#222"/><path d="m108.118 438.014c12.639-6.413 34.99-13.94 61-20.19 16.833-4.14 33.957-7.122 51.24-8.922l4.66 17.704c-16.113 6.168-32.676 11.215-49.556 15.102-26.01 6.203-49.459 9.572-63.757 9.595z" fill="#fff"/><path d="m111.632 452.488c-.281.002-.555-.086-.776-.25-.222-.165-.378-.396-.444-.656l-3.514-13.289c-.066-.26-.039-.533.076-.777s.311-.445.558-.571c13.201-6.691 36.112-14.265 61.269-20.283 16.834-4.143 33.957-7.132 51.24-8.945.303-.041.611.03.86.199.25.168.422.422.482.708l4.66 17.703c.071.278.036.57-.098.825s-.359.457-.634.569c-16.183 6.173-32.809 11.235-49.751 15.148-25.157 6.018-49.093 9.596-64.05 9.619zm-2.05-13.94 3.026 11.454c14.81-.186 38.039-3.717 62.464-9.549 16.465-3.805 32.632-8.696 48.385-14.637l-4.124-15.705c-16.839 1.892-33.52 4.896-49.922 8.991-24.425 5.715-46.677 13.034-59.829 19.539z" fill="#222"/><path d="m77.1788 459.528c-8.052 2.091-69.61321 32.759-75.37161 10.896-5.7584-21.862 63.70841-22.466 71.85801-24.232z" fill="#fff"/><path d="m15.7883 479.508c-3.1776.109-6.33957-.471-9.24759-1.696-1.45669-.7-2.73786-1.692-3.75641-2.906s-1.75062-2.623-2.146466-4.131c-.395843-1.507-.446181-3.079-.147585-4.606.298596-1.528.939121-2.977 1.878051-4.248 8.7352-11.617 43.0416-14.382 61.488-15.868 4.5628-.372 8.174-.651 9.5892-.953.1571-.042.3215-.052.483-.031.1615.022.3168.074.4562.155.1394.08.26.187.3545.314.0944.126.1607.27.1947.422l3.5136 13.335c.0828.305.0373.629-.1268.902-.164.274-.4337.475-.7516.562-1.3908.349-4.7336 1.719-8.9304 3.439-13.8348 5.599-37.3076 15.31-52.8504 15.31zm56.9984-31.876c-1.8544.256-4.88.488-8.7108.814-16.7628 1.347-51.606 4.135-59.65799 14.869-.77313.984-1.29657 2.126-1.52938 3.335s-.16869 2.453.18737 3.635c.26976 1.185.82434 2.295 1.62022 3.243.79588.947 1.81143 1.706 2.96699 2.217 12.41959 5.855 44.52999-7.319 59.97519-13.638 3.538-1.464 6.3196-2.602 8.0764-3.206z" fill="#222"/><path d="m83.7322 459.98-4.8607-18.481c-.4878-1.855-2.4622-2.981-4.4099-2.517l-5.0178 1.197c-1.9478.464-3.1313 2.344-2.6435 4.199l4.8607 18.48c.4878 1.855 2.4622 2.982 4.4099 2.517l5.0178-1.196c1.9478-.465 3.1313-2.345 2.6435-4.199z" fill="#fff"/><path d="m75.2022 466.707c-.8615-.016-1.7034-.248-2.44-.674-.5535-.312-1.0367-.725-1.422-1.215-.3852-.491-.6648-1.049-.8228-1.643l-4.88-18.47c-.1606-.595-.1956-1.215-.1031-1.823s.3107-1.192.642-1.719.7691-.987 1.2881-1.352 1.1088-.628 1.7354-.775l5.0264-1.185c.6216-.15 1.2682-.181 1.9027-.093s1.2445.295 1.7951.608c.5507.312 1.0312.726 1.4141 1.215.3828.49.6606 1.047.8173 1.639l4.88 18.587c.1573.592.1906 1.207.0979 1.811-.0927.605-.3095 1.185-.6381 1.71-.3286.524-.7624.982-1.2768 1.346-.5144.365-1.0992.629-1.721.778l-5.0508 1.208c-.411.067-.8292.082-1.2444.047zm.1952-26.602h-.5856l-5.0264 1.208c-.6026.159-1.1184.531-1.4407 1.042-.3224.51-.4268 1.118-.2917 1.699l4.88 18.471c.1622.583.556 1.083 1.098 1.394.5378.298 1.175.39 1.7812.256l5.0508-1.209c.5982-.163 1.1082-.538 1.4257-1.047.3175-.51.4185-1.116.2823-1.694l-4.88-18.471c-.1321-.488-.4273-.922-.841-1.236s-.9235-.492-1.4526-.506z" fill="#222"/><path d="m368.198 474.862c-10.126-9.642-29.28-23.048-52.192-36.175-14.863-8.606-30.356-16.185-46.36-22.675l-9.76 15.636c13.545 10.354 27.856 19.764 42.822 28.159 22.985 13.126 44.408 22.815 58.096 26.788z" fill="#fff"/><path d="m360.804 487.687h-.366c-14.298-4.159-36.112-14.219-58.364-26.905-15.026-8.43-29.394-17.879-42.993-28.275-.232-.181-.386-.437-.435-.719-.05-.281.01-.57.166-.814l9.76-15.659c.15-.247.388-.432.672-.522.283-.09.591-.078.866.034 16.006 6.522 31.499 14.131 46.36 22.769 22.228 12.708 41.846 26.276 52.435 36.336.198.19.324.436.36.701.035.264-.023.533-.165.763l-7.32 11.756c-.109.154-.254.281-.423.374-.169.092-.358.147-.553.161zm-99.283-56.411c13.27 10.015 27.252 19.144 41.846 27.322 21.594 12.337 42.749 22.142 56.876 26.394l6.369-10.13c-10.59-9.851-29.646-23.001-51.24-35.315-14.473-8.395-29.54-15.824-45.092-22.234z" fill="#222"/><path d="m391.207 503.857c7.076 4.252 56.657 50.602 68.808 31.272s-54.119-39.102-61.366-43.051z" fill="#fff"/><path d="m450.913 541.007c-15.128 0-39.479-19.562-52.874-30.343-3.514-2.834-6.271-5.064-7.491-5.785-.276-.167-.474-.43-.551-.733-.078-.304-.029-.623.136-.893l7.32-11.803c.172-.267.447-.459.765-.537.319-.078.657-.036.943.119 1.244.674 4.612 1.952 8.882 3.578 17.202 6.506 49.19 18.587 53.997 32.178.515 1.476.69 3.04.513 4.586-.178 1.546-.704 3.037-1.543 4.372-.838 1.335-1.97 2.481-3.316 3.361-1.347.88-2.878 1.473-4.487 1.737-.759.109-1.526.164-2.294.163zm-58.023-37.475c1.513 1.069 3.831 2.927 6.783 5.297 12.835 10.316 39.577 31.76 53.217 29.646 1.247-.214 2.431-.679 3.473-1.364 1.043-.685 1.919-1.574 2.571-2.609.651-1.034 1.063-2.189 1.208-3.387.144-1.198.017-2.412-.371-3.56-4.392-12.5-36.942-24.813-52.558-30.714-3.587-1.371-6.393-2.44-8.101-3.183z" fill="#222"/><path d="m395.475 508.549 10.287-16.341c1.032-1.64.473-3.766-1.249-4.749l-4.437-2.532c-1.722-.983-3.955-.451-4.987 1.189l-10.287 16.341c-1.033 1.639-.473 3.766 1.249 4.749l4.436 2.532c1.723.983 3.956.451 4.988-1.189z" fill="#fff"/><path d="m392.354 511.501c-.862-.016-1.704-.248-2.44-.674l-4.466-2.532c-.552-.314-1.034-.728-1.418-1.219-.383-.491-.661-1.049-.818-1.643-.156-.594-.188-1.211-.093-1.816.095-.606.314-1.187.646-1.712l10.297-16.263c.331-.524.767-.981 1.283-1.344.517-.363 1.104-.625 1.727-.772.624-.147 1.271-.175 1.906-.083s1.244.302 1.794.619l4.44 2.533c.553.313 1.035.727 1.418 1.218.384.491.662 1.049.819 1.643.156.594.188 1.211.093 1.816-.095.606-.314 1.187-.646 1.712l-10.272 16.263c-.331.53-.768.991-1.288 1.358-.519.367-1.11.632-1.738.78-.408.089-.826.128-1.244.116zm5.856-25.812c-.195-.023-.392-.023-.586 0-.3.069-.582.195-.829.371-.248.176-.455.397-.611.651l-10.296 16.263c-.314.512-.41 1.119-.269 1.696.069.29.199.564.384.804s.42.441.69.59l4.465 2.556c.545.287 1.184.366 1.787.219.604-.147 1.125-.508 1.458-1.009l10.297-16.263c.309-.521.396-1.136.241-1.716-.154-.58-.538-1.08-1.071-1.398l-4.44-2.532c-.379-.177-.799-.257-1.22-.232z" fill="#222"/><path d="m128.712 338.064c13.688 3.973 35.111 13.661 58.096 26.788 14.97 8.389 29.281 17.799 42.822 28.159l-9.76 15.636c-16.006-6.486-31.5-14.065-46.36-22.676-22.985-13.127-42.066-26.532-52.192-36.151z" fill="#fff"/><path d="m219.797 409.809c-.161.034-.328.034-.488 0-16.007-6.522-31.5-14.131-46.36-22.769-22.253-12.686-41.846-26.277-52.436-36.337-.198-.189-.324-.435-.359-.7-.036-.265.022-.534.164-.764l7.32-11.756c.145-.226.366-.4.627-.492.261-.093.547-.1.813-.019 14.298 4.136 36.136 14.196 58.389 26.904 15.018 8.42 29.378 17.862 42.968 28.252.235.179.395.432.449.714.053.282-.002.573-.156.819l-9.76 15.66c-.132.172-.311.309-.516.394-.206.086-.432.118-.655.094zm-96.893-60.245c10.614 9.875 29.671 23.001 51.24 35.338 14.476 8.384 29.542 15.805 45.092 22.211l8.735-13.94c-13.264-10.033-27.238-19.186-41.822-27.392-21.618-12.313-42.773-22.141-56.901-26.393z" fill="#222"/><path d="m90.8915 332.465c-7.32-3.927-73.566-23.698-61.3904-43.052 12.1756-19.353 61.732 27.021 68.808 31.272z" fill="#fff"/><path d="m90.8914 333.673c-.2234.004-.4436-.052-.6344-.163-1.2444-.674-4.6116-1.951-8.8816-3.578-17.08-6.505-49.1904-18.586-53.9972-32.178-.4949-1.469-.6538-3.021-.466-4.553s.7179-3.008 1.5547-4.329c.8368-1.32 1.9609-2.455 3.2966-3.327 1.3358-.873 2.8523-1.463 4.4475-1.731 14.64-2.323 41.1384 18.796 55.266 30.203 3.5136 2.835 6.2952 5.065 7.4908 5.786.2812.163.4827.426.5605.731s.0254.627-.1457.895l-7.32 11.802c-.1379.165-.3186.292-.524.369-.2054.078-.4285.103-.6472.073zm-52.216-47.745c-.6859-.001-1.3709.045-2.0496.14-1.2602.178-2.4608.629-3.5097 1.318-1.0489.688-1.9183 1.597-2.5415 2.655-.6922 1.023-1.1252 2.185-1.265 3.394-.1397 1.21.0177 2.434.4598 3.576 4.4408 12.499 36.9172 24.813 52.5332 30.737 3.6112 1.348 6.3928 2.324 8.1008 3.183l6.222-9.897c-1.5128-1.069-3.8064-2.927-6.7588-5.297-12.2488-9.851-37.088-29.809-51.1912-29.809z" fill="#222"/><path d="m95.1437 337.183 10.2873-16.34c1.032-1.64.473-3.766-1.249-4.749l-4.4372-2.532c-1.7222-.983-3.9552-.451-4.9875 1.189l-10.2869 16.34c-1.0323 1.64-.4731 3.766 1.249 4.749l4.4368 2.533c1.7222.983 3.9551.45 4.9875-1.19z" fill="#fff"/><path d="m92.0384 340.109c-.8593-.009-1.701-.233-2.44-.651l-4.4408-2.532c-.5523-.314-1.0342-.728-1.4179-1.219-.3838-.491-.6619-1.049-.8183-1.643-.1565-.594-.1882-1.211-.0933-1.816.0948-.606.3143-1.187.6459-1.712l10.2724-16.263c.3289-.526.7637-.985 1.2795-1.35.5157-.366 1.1021-.63 1.7256-.779s1.2718-.179 1.9076-.089 1.2466.299 1.7969.615l4.466 2.556c1.064.654 1.82 1.677 2.106 2.852.287 1.174.083 2.41-.569 3.444l-10.297 16.263c-.4195.692-1.0194 1.27-1.7417 1.677-.7224.407-1.5428.63-2.3819.647zm5.856-25.79c-.4105.004-.8136.105-1.1718.296-.3583.191-.6602.465-.8778.796l-10.2968 16.264c-.302.518-.3842 1.127-.23 1.702.1543.574.5333 1.071 1.0596 1.388l4.4408 2.532c.5441.297 1.1872.383 1.796.24.6087-.143 1.1364-.503 1.4736-1.006l10.272-16.264c.312-.518.402-1.13.252-1.71s-.528-1.082-1.057-1.403l-4.4162-2.602c-.3837-.189-.8131-.277-1.2444-.256z" fill="#222"/><path d="m203.424 253.239c-32.92 7.839-62.659 24.799-85.455 48.733-22.797 23.934-37.6271 53.768-42.615 85.729-4.9879 31.96.0905 64.611 14.5929 93.823 14.5021 29.212 37.7771 53.673 66.8811 70.289 29.103 16.615 62.728 24.639 96.621 23.056 33.893-1.582 66.533-12.7 93.789-31.947 27.257-19.247 47.907-45.758 59.338-76.181s13.131-63.391 4.883-94.733c-11.056-42.013-39.181-78.125-78.193-100.397-39.011-22.272-85.714-28.88-129.842-18.372zm73.835 280.659c-25.381 6.058-52.079 4.814-76.718-3.576-24.638-8.389-46.111-23.548-61.701-43.558-15.591-20.01-24.6-43.972-25.888-68.858-1.287-24.885 5.204-49.575 18.654-70.947 13.449-21.372 33.253-38.467 56.906-49.122s50.093-14.392 75.977-10.739c25.884 3.654 50.048 14.534 69.438 31.265 19.389 16.731 33.133 38.561 39.492 62.729 8.52 32.405 3.177 66.705-14.856 95.359-18.032 28.655-47.277 49.318-81.304 57.447z" fill="#fff"/><path d="m245.148 576.275c-44.028.027-86.409-15.94-118.5-44.642-32.0911-28.703-51.4752-67.981-54.1997-109.824-2.7244-41.843 11.4161-83.099 39.5377-115.357 28.122-32.257 68.107-53.085 111.802-58.238 43.694-5.152 87.808 5.76 123.344 30.511s59.818 61.477 67.896 102.689c8.077 41.211-.659 83.805-24.428 119.094-23.768 35.29-60.779 60.618-103.484 70.819-13.724 3.275-27.819 4.937-41.968 4.948zm0-326.753c-35.474-.008-70.066 10.53-98.947 30.144s-50.6102 47.324-62.1552 79.263c-11.5449 31.939-12.3293 66.513-2.2436 98.897s30.5378 60.962 58.5028 81.745 62.046 32.734 97.487 34.185c35.442 1.451 70.475-7.671 100.21-26.092 29.734-18.42 52.687-45.221 65.655-76.661 12.968-31.441 15.303-65.952 6.679-98.716-9.206-35.083-30.469-66.227-60.406-88.477s-66.829-34.327-104.806-34.312zm0 289.348c-33.999-.002-66.718-12.352-91.485-34.531-24.766-22.18-39.715-52.52-41.799-84.833s8.855-64.166 30.586-89.064 52.617-40.967 86.361-44.929 67.805 4.481 95.237 23.607 46.169 47.495 52.392 79.322c6.222 31.827-.539 64.715-18.905 91.96-18.366 27.244-46.954 46.792-79.935 54.657l-.293-1.161.293 1.161c-10.621 2.531-21.528 3.81-32.476 3.811zm0-251.966c-18.57-.017-36.931 3.724-53.868 10.975-16.936 7.251-32.061 17.846-44.372 31.084s-21.527 28.815-27.037 45.701-7.188 34.693-4.924 52.243c2.265 17.55 8.42 34.442 18.059 49.555s22.541 28.104 37.851 38.11c15.31 10.007 32.679 16.801 50.955 19.932 18.277 3.131 37.043 2.529 55.056-1.768 31.01-7.397 58.111-25.331 76.202-50.427 18.091-25.097 25.924-55.624 22.026-85.836s-19.26-58.025-43.193-78.205-54.787-31.334-86.755-31.364z" fill="#222"/><path d="m310.858 590.169-30.086-191.977c-2.098-13.406-13.224-23.234-26.303-23.234h-18.69c-13.054 0-24.205 9.851-26.303 23.234l-30.061 191.977z" fill="#fff"/><path d="m310.857 591.377h-131.442c-.181-.003-.359-.041-.523-.113s-.31-.176-.429-.305c-.117-.134-.204-.291-.255-.459-.05-.168-.063-.344-.038-.517l30.085-192.024c2.196-14.079 13.786-24.278 27.548-24.278h18.666c13.762 0 25.352 10.199 27.548 24.278l30.109 192.024c.04.349-.065.699-.293.976-.123.13-.274.234-.442.305-.168.072-.349.111-.534.113zm-129.978-2.323h128.539l-29.89-190.653c-2.001-12.895-12.542-22.234-25.059-22.234h-18.69c-12.493 0-23.034 9.293-25.059 22.234z" fill="#222"/><path d="m245.148 431.834c11.67 0 21.131-9.008 21.131-20.12s-9.461-20.12-21.131-20.12-21.13 9.008-21.13 20.12 9.46 20.12 21.13 20.12z" fill="#b3b3b3"/><path d="m100.505 309.626c-.5856-.65-2.8304-3.531-5.5388-3.438-2.1472 0-6.4172 5.831-6.4172 5.831 1.2151-1.479 1.9307-3.275 2.0527-5.149.122-1.875-.3555-3.741-1.3695-5.352-2.44-3.044-8.1252-3.206-9.76.163.505-.657.862-1.405 1.0488-2.199.1867-.793.1991-1.615.0365-2.414-.1627-.798-.497-1.556-.9819-2.226-.4848-.669-1.1099-1.236-1.8358-1.665-3.0256-1.58-6.7588-1.626-8.4668 1.626 2.7572-2.323 3.05-5.088.8052-7.481-.981-.772-2.1437-1.306-3.3887-1.557-1.245-.25-2.5352-.21-3.7605.117-9.9376 1.501-19.1249 5.948-26.2544 12.709-5.8072 5.483-15.6648 16.728-12.7368 24.836 1.3283 3.121 3.1918 6.01 5.5144 8.55 3.8631 5.198 8.4333 9.886 13.5908 13.94 4.4853 3.18 9.6427 5.394 15.1154 6.49 5.4727 1.095 11.1299 1.045 16.5802-.148 8.052-1.858 9.3452-4.971 12.2-11.988 3.0744-7.504 16.9334-26.834 13.5664-30.645z" fill="#fff"/><path d="m66.0034 354.443c-8.5771.012-16.9262-2.63-23.79-7.527-5.2508-4.128-9.9031-8.902-13.8348-14.196-2.3928-2.65-4.3133-5.656-5.6852-8.898-3.4648-9.549 9.1012-22.374 13.0296-26.068 7.2756-6.94 16.6706-11.51 26.84-13.057 3.8796-.558 6.588 0 8.2472 1.835.6027.589 1.0736 1.287 1.384 2.054s.4538 1.586.4216 2.407c1.927-.199 3.87.2 5.5388 1.139.8955.487 1.6678 1.156 2.2622 1.959.5945.803.9966 1.72 1.1782 2.687.0971.483.1461.973.1464 1.464.4847-.142.9835-.235 1.4884-.279 1.3019-.125 2.616.063 3.8222.546 1.2063.483 2.2662 1.246 3.083 2.219 1.2398 1.661 1.8271 3.684 1.6592 5.715.8004-.802 1.8545-1.332 3.0012-1.51h.1952c1.2502.159 2.4501.571 3.5191 1.208s1.9823 1.485 2.6783 2.486l.171.163c2.611 2.974-1.4396 10.548-7.93 21.793-1.979 3.25-3.7709 6.601-5.368 10.037-2.7816 6.97-4.3188 10.71-13.054 12.731-2.9453.702-5.9676 1.069-9.0036 1.092zm-.732-67.539c-.7433.002-1.4855.056-2.2204.163-9.6844 1.449-18.6369 5.785-25.5712 12.383-7.5396 7.11-14.7864 17.053-12.4196 23.605 1.3006 2.988 3.0965 5.757 5.3192 8.202 3.7961 5.122 8.2836 9.746 13.3468 13.754 4.3569 3.098 9.3744 5.249 14.6989 6.301 5.3246 1.052 10.8266.979 16.1183-.214 7.442-1.719 8.4912-4.322 11.2728-11.245 1.644-3.549 3.4931-7.008 5.5388-10.362 3.7088-6.413 9.882-17.17 8.1984-19.075l-.1952-.209c-.61-.72-2.44-2.834-4.3432-2.811-2.2016 1.355-4.0534 3.165-5.4168 5.297-.0945.128-.2146.237-.3534.321-.1389.084-.2937.141-.4557.168s-.328.024-.4885-.01c-.1605-.035-.3124-.098-.447-.188s-.2492-.205-.3374-.337c-.0881-.132-.1481-.28-.1764-.434s-.0244-.312.0114-.465.1029-.297.1974-.426c1.0554-1.276 1.6827-2.825 1.8002-4.445s-.2802-3.237-1.1414-4.639c-.5528-.638-1.2637-1.136-2.0687-1.449-.8049-.312-1.6787-.429-2.5429-.34-.926.069-1.7938.457-2.44 1.092-.1969.324-.417.634-.6588.93-.1982.22-.4733.366-.7749.409s-.6095-.018-.8674-.174c-.2578-.155-.4482-.393-.5365-.671-.0882-.278-.0683-.577.056-.842.1851-.353.4058-.687.6588-.999.4284-.895.548-1.895.3416-2.858-.1087-.633-.3616-1.235-.7409-1.765-.3794-.53-.8761-.974-1.4551-1.302-.6715-.404-1.4204-.678-2.2034-.805-.7831-.128-1.5849-.107-2.3594.062-.2884.068-.5613.186-.8052.348-.4658.672-1.0147 1.288-1.6348 1.836-.2249.181-.5102.281-.8052.281-.2949 0-.5803-.1-.8052-.281-.2373-.171-.4039-.416-.4708-.692s-.0298-.566.1048-.819c.4113-.801 1.0028-1.507 1.7324-2.067.3698-.661.4963-1.421.3592-2.158-.1372-.737-.53-1.409-1.1156-1.908-.5237-.451-1.144-.789-1.818-.989-.674-.201-1.3857-.26-2.086-.173z" fill="#222"/><path d="m37.358 325.681c-.2153.001-.4267-.055-.61-.163-.1453-.075-.2735-.177-.3769-.3s-.1801-.264-.2256-.416c-.0454-.151-.0587-.31-.039-.466.0196-.156.0718-.307.1535-.444 7.32-12.825 31.1832-29.367 32.208-30.064.1324-.095.2832-.163.4437-.202.1605-.038.3275-.046.4911-.022s.3205.079.4617.161c.1411.082.2636.19.3603.318.1917.26.2684.581.2136.894-.0547.313-.2367.593-.5064.779-.244.186-24.4 16.937-31.476 29.297-.1062.19-.2644.348-.4578.459-.1934.11-.4147.169-.6402.169z" fill="#222"/><path d="m52.0223 335.137c-.2234.004-.4435-.052-.6344-.163-.1432-.077-.269-.181-.37-.304-.101-.124-.1752-.266-.2184-.417-.0431-.151-.0542-.309-.0328-.465.0214-.155.075-.305.1576-.44 8.4668-13.755 26.84-31.737 27.572-32.527.2403-.217.5592-.339.8906-.339.3315 0 .6503.122.8906.339.234.226.3651.531.3651.848s-.1311.622-.3651.848c-.1952.186-18.8856 18.587-27.206 32.039-.1064.175-.2593.321-.4433.423-.1841.102-.393.156-.6059.158z" fill="#222"/><path d="m65.7107 342.432c-.1856.032-.3757.032-.5612 0-.295-.145-.5202-.392-.6292-.69-.109-.299-.0934-.626.0436-.913 7.5152-14.823 22.4724-28.903 23.1068-29.507.2403-.217.5591-.338.8906-.338.3314 0 .6502.121.8906.338.1188.111.2132.243.2776.388.0645.146.0977.302.0977.46s-.0332.315-.0977.461c-.0644.145-.1588.277-.2776.387-.1464.14-15.2744 14.382-22.5944 28.833-.1185.186-.2876.339-.4894.441-.2019.102-.429.15-.6574.14z" fill="#222"/><path d="m451.45 405.557c-6.016 1.387-12.354.695-17.885-1.952-2.726-1.35-5.023-3.369-6.653-5.849-1.63-2.479-2.535-5.329-2.619-8.253.007-1.607.381-3.193 1.098-4.647 1.185-2.188 3.017-3.997 5.271-5.204 9.394-5.321 34.867-7.993 41.772 1.882 9.321 13.289-10.15 21.839-20.984 24.023z" fill="#fff"/><path d="m445.009 407.485c-4.195.056-8.338-.887-12.054-2.741-2.937-1.449-5.409-3.625-7.157-6.299s-2.706-5.747-2.774-8.896c.023-1.774.439-3.524 1.22-5.135 1.297-2.404 3.308-4.391 5.783-5.715 10.126-5.739 36.088-8.271 43.456 2.323 1.331 1.622 2.197 3.546 2.514 5.582.316 2.036.072 4.115-.708 6.035-3.514 8.201-16.47 12.802-23.57 14.219-2.208.434-4.457.644-6.71.627zm8.174-31.295c-7.603-.124-15.129 1.468-21.96 4.646-2.063 1.07-3.757 2.683-4.88 4.647-.629 1.305-.954 2.724-.952 4.159.094 2.704.94 5.337 2.454 7.627 1.513 2.29 3.639 4.156 6.159 5.407 5.285 2.522 11.342 3.164 17.08 1.812 8.565-1.719 19.032-6.459 21.765-12.778.584-1.549.747-3.213.474-4.838s-.974-3.158-2.036-4.456c-2.976-4.623-10.321-6.296-18.104-6.296z" fill="#222"/><path d="m462.699 329.073c-3.627-1.084-7.43-1.533-11.224-1.325-3.978.326-9.76 1.023-12.786 3.602-.851.686-1.517 1.557-1.941 2.54-.425.982-.596 2.047-.499 3.105.21 1.051.671 2.043 1.348 2.897s1.552 1.548 2.556 2.029c2.009.936 4.171 1.541 6.393 1.789 5.343.836 34.941 6.017 29.451-7.156-2.123-4.74-8.784-6.25-13.298-7.481z" fill="#fff"/><path d="m463.601 346.614c-5.633-.103-11.247-.647-16.787-1.627h-.634c-2.362-.262-4.657-.914-6.783-1.928-1.174-.571-2.194-1.393-2.981-2.4s-1.32-2.173-1.558-3.408c-.121-1.256.079-2.521.585-3.687.506-1.165 1.302-2.197 2.319-3.004 3.245-2.742 8.906-3.532 13.493-3.927 3.951-.216 7.91.248 11.688 1.371l.756.209c4.734 1.255 11.224 2.951 13.322 7.992.614 1.09.892 2.322.801 3.556-.09 1.233-.546 2.417-1.313 3.414-2.001 2.254-6.271 3.439-12.908 3.439zm-10.321-17.75c-.61 0-1.22 0-1.805 0-3.856.325-9.321 1.022-12.054 3.322-.716.556-1.279 1.269-1.641 2.079-.361.81-.51 1.691-.433 2.568.186.866.577 1.68 1.144 2.381.566.701 1.293 1.269 2.126 1.661 1.884.859 3.903 1.416 5.978 1.65l.634.116c19.227 3.067 25.474 1.115 27.328-1.092.481-.683.75-1.481.776-2.303s-.192-1.635-.63-2.344c-1.659-3.926-7.442-5.46-11.687-6.575l-.757-.209c-2.92-.801-5.94-1.223-8.979-1.254z" fill="#222"/><path d="m421.414 341.386c.805-.395 4.026-2.323 6.49-1.161 1.952.859 3.587 7.736 3.587 7.736-.532-1.811-.474-3.734.167-5.514.64-1.78 1.833-3.332 3.42-4.453 3.392-1.951 8.808 0 9.028 3.741-.203-.789-.233-1.61-.087-2.41.145-.801.462-1.564.932-2.242.47-.679 1.081-1.257 1.796-1.7.716-.443 1.519-.74 2.361-.874 3.44-.371 6.905.976 7.198 4.647-1.586-3.23-.781-5.785 2.245-7.202 1.22-.35 2.51-.416 3.762-.194s2.43.727 3.436 1.471c8.579 5.011 15.274 12.477 19.129 21.329 3.172 7.179 7.76 21.142 1.782 27.578-2.489 2.388-5.364 4.38-8.516 5.901-5.674 3.399-11.795 6.07-18.202 7.946-5.449 1.314-11.134 1.477-16.655.478-5.522-1-10.747-3.137-15.309-6.263-6.686-4.647-6.637-8.016-6.418-15.52.22-8.109-4.782-31.017-.146-33.294z" fill="#fff"/><g fill="#222"><path d="m450.499 398.192c-8.361.008-16.51-2.505-23.278-7.179-7.32-5.042-7.149-9.108-6.929-16.496-.093-3.762-.402-7.516-.928-11.245-1.488-12.755-2.171-21.235 1.44-23.024l.22-.116c1.064-.677 2.271-1.123 3.535-1.307 1.265-.185 2.557-.104 3.785.238.978.593 1.737 1.462 2.171 2.486.655-1.934 2.013-3.582 3.831-4.647 1.143-.6 2.428-.914 3.733-.914 1.306 0 2.59.314 3.733.914.453.217.879.482 1.269.79.202-.45.438-.884.708-1.301.56-.839 1.307-1.551 2.188-2.085.882-.534 1.875-.877 2.911-1.005 1.917-.262 3.871.08 5.564.976.295-.776.755-1.486 1.351-2.086.596-.599 1.316-1.076 2.113-1.399 2.245-1.046 4.88-.604 8.37 1.324 8.816 5.136 15.7 12.797 19.666 21.886 2.147 4.856 8.589 21.258 1.537 28.833-2.572 2.497-5.555 4.577-8.833 6.156-5.766 3.449-11.985 6.16-18.495 8.062-3.157.767-6.404 1.149-9.662 1.139zm-28.548-55.76c-2.44 1.161-.927 13.336 0 20.631.55 3.852.868 7.73.951 11.617-.219 7.434-.292 10.199 5.905 14.521 4.406 3.035 9.46 5.111 14.803 6.078 5.342.968 10.843.804 16.112-.479 6.285-1.862 12.289-4.494 17.861-7.83 3.032-1.452 5.8-3.358 8.198-5.646 4.88-5.181 2.123-17.006-1.976-26.323-3.755-8.618-10.281-15.881-18.642-20.747-2.586-1.487-4.538-1.882-5.978-1.232-.758.229-1.412.696-1.855 1.325-.444.629-.65 1.382-.585 2.137.449.789.716 1.66.781 2.556.084.308.036.635-.133.91-.169.274-.446.473-.77.553-.323.081-.667.035-.955-.126-.289-.161-.498-.425-.582-.733-.364-.739-.627-1.52-.781-2.324-.177-.223-.382-.426-.61-.604-.646-.44-1.378-.755-2.152-.927-.775-.171-1.577-.196-2.362-.072-.664.098-1.297.332-1.857.685s-1.034.817-1.388 1.36c-.585.812-.884 1.78-.854 2.765.122.377.196.767.22 1.161.011.294-.089.582-.281.813-.193.23-.465.387-.769.442-.302.052-.614-.005-.876-.16-.261-.154-.453-.395-.539-.676-.118-.356-.2-.722-.244-1.092-.359-.86-1.048-1.558-1.927-1.952-.769-.395-1.628-.601-2.501-.601s-1.733.206-2.501.601c-1.351.99-2.36 2.342-2.899 3.882-.539 1.539-.583 3.197-.127 4.761.074.308.017.631-.159.899s-.457.459-.78.53c-.324.07-.664.016-.945-.152-.282-.167-.482-.435-.556-.743-.394-2.501-1.379-4.884-2.879-6.97-1.708-.767-4.319.581-5.149.999z"/><path d="m473.776 379.326c-.312-.004-.611-.118-.841-.319-.23-.202-.373-.477-.403-.773-1.562-13.94-17.08-38.265-17.3-38.52-.088-.134-.148-.283-.175-.439s-.021-.316.018-.47c.038-.153.109-.298.207-.425.099-.128.223-.235.365-.316.286-.164.627-.215.951-.141.325.074.605.267.782.536.634 1.022 16.055 25.022 17.641 39.497.017.155.001.313-.047.463-.047.149-.125.289-.23.41-.104.121-.232.221-.378.294-.145.074-.304.119-.468.134z"/><path d="m456.428 382.718c-.301-.002-.592-.106-.82-.293s-.378-.446-.424-.729c-2.245-15.52-12.2-39.264-12.2-39.497-.123-.308-.113-.65.029-.95.142-.301.403-.536.727-.653s.683-.107.998.028c.316.136.563.385.686.693.414.975 10.126 24.278 12.395 40.054.024.157.015.317-.026.471-.04.154-.113.299-.213.426-.099.128-.224.235-.368.316-.143.081-.302.135-.467.158z"/><path d="m440.885 384.414c-.324.001-.636-.117-.872-.328-.236-.212-.378-.502-.397-.81-.951-16.008-9.199-34.664-9.296-34.85-.123-.296-.121-.627.007-.921.127-.295.37-.531.676-.659.151-.061.312-.094.476-.095.164-.002.326.027.478.086.152.058.29.144.407.253.117.11.21.24.274.383.366.79 8.515 19.238 9.491 35.664.01.158-.013.317-.068.468-.054.15-.14.288-.251.407s-.245.215-.396.284c-.15.069-.313.11-.48.118z"/><path d="m288.702 204.286c-.241.003-.478-.062-.682-.186-.204-.123-.365-.301-.465-.511-.069-.144-.107-.301-.113-.46s.022-.318.081-.467.148-.285.262-.401c.115-.116.252-.209.405-.275.146 0 15.738-6.97 23.839-29.622.106-.308.337-.563.642-.709.15-.073.315-.116.483-.128s.337.008.497.058c.16.051.309.131.436.236.128.104.233.232.309.376.076.143.121.3.134.46.012.16-.008.321-.061.473-8.492 23.698-24.4 30.761-25.206 31.063-.177.072-.369.103-.561.093z"/><path d="m259.422 313.042c2.776 0 5.027-2.143 5.027-4.786 0-2.644-2.251-4.786-5.027-4.786s-5.026 2.142-5.026 4.786c0 2.643 2.25 4.786 5.026 4.786z"/><path d="m256.372 352.678c2.776 0 5.027-2.143 5.027-4.786 0-2.644-2.251-4.786-5.027-4.786s-5.026 2.142-5.026 4.786c0 2.643 2.25 4.786 5.026 4.786z"/></g></svg>